<svg width="349" height="199" viewBox="0 0 349 199" fill="none" xmlns="http://www.w3.org/2000/svg">
<path d="M34.2108 101.6C28.9649 101.6 24.0747 100.667 19.5401 98.7997C15.0055 96.9325 11.0933 94.3095 7.80352 90.9308C4.51373 87.4632 2.06861 83.3732 0.46817 78.6608L11.5379 74.1262C13.4051 79.1054 16.3392 82.9731 20.3403 85.7294C24.3414 88.4857 28.9649 89.8639 34.2108 89.8639C38.3008 89.8639 41.9462 89.0637 45.1471 87.4632C48.348 85.8628 50.8376 83.551 52.6158 80.528C54.483 77.5049 55.4166 73.8595 55.4166 69.5916C55.4166 65.2349 54.483 61.5894 52.6158 58.6553C50.8376 55.6322 48.348 53.3205 45.1471 51.7201C41.9462 50.1196 38.2563 49.3194 34.0774 49.3194C32.7437 49.3194 31.2766 49.4083 29.6762 49.5861C28.1647 49.764 26.8754 50.0307 25.8085 50.3864L23.0077 44.3847L49.5483 11.9758H5.53623V0.639345H64.3524V11.5757L39.0121 42.7843L38.2119 39.3167C44.1691 39.4945 49.415 40.8726 53.9495 43.4511C58.4841 46.0296 62.0407 49.5417 64.6191 53.9873C67.1976 58.3441 68.4869 63.4566 68.4869 69.3249C68.4869 75.371 67.0198 80.8392 64.0857 85.7294C61.1515 90.6196 57.106 94.4874 51.949 97.3326C46.792 100.178 40.8793 101.6 34.2108 101.6ZM87.4723 100V0.639345H100.543V44.9182H150.29V0.639345H163.493V100H150.29V56.9215H100.543V100H87.4723ZM221.556 101.6C214.354 101.6 207.952 100.089 202.351 97.0659C196.838 94.0428 192.526 89.9083 189.414 84.6625C186.391 79.3276 184.879 73.2815 184.879 66.5241V0.639345H198.083V66.2574C198.083 70.792 199.061 74.8375 201.017 78.3941C203.062 81.8617 205.818 84.5735 209.286 86.5296C212.843 88.4857 216.933 89.4638 221.556 89.4638C226.18 89.4638 230.225 88.4857 233.693 86.5296C237.249 84.5735 240.006 81.8617 241.962 78.3941C244.007 74.8375 245.029 70.792 245.029 66.2574V0.639345H258.233V66.5241C258.233 73.2815 256.677 79.3276 253.565 84.6625C250.542 89.9083 246.274 94.0428 240.761 97.0659C235.249 100.089 228.847 101.6 221.556 101.6ZM279.713 100V0.639345H344.397V12.6426H292.783V44.118H341.73V56.1213H292.783V87.9967H344.397V100H279.713ZM25.1 183.84C21.5533 183.84 18.2867 183.187 15.3 181.88C12.3133 180.527 9.7 178.637 7.46 176.21C5.22 173.783 3.47 170.937 2.21 167.67C0.996667 164.403 0.39 160.81 0.39 156.89C0.39 153.017 0.996667 149.447 2.21 146.18C3.47 142.867 5.22 140.02 7.46 137.64C9.7 135.213 12.3133 133.347 15.3 132.04C18.2867 130.687 21.5533 130.01 25.1 130.01C28.5533 130.01 31.6567 130.663 34.41 131.97C37.1633 133.23 39.4967 134.84 41.41 136.8C43.3233 138.713 44.7 140.673 45.54 142.68L42.25 144.15C40.71 140.883 38.4467 138.27 35.46 136.31C32.52 134.35 29.0667 133.37 25.1 133.37C20.9467 133.37 17.26 134.373 14.04 136.38C10.8667 138.34 8.37 141.093 6.55 144.64C4.77667 148.14 3.89 152.223 3.89 156.89C3.89 161.557 4.77667 165.663 6.55 169.21C8.37 172.757 10.8667 175.533 14.04 177.54C17.26 179.5 20.9467 180.48 25.1 180.48C29.0667 180.48 32.52 179.5 35.46 177.54C38.4467 175.58 40.71 172.967 42.25 169.7L45.54 171.17C44.7 173.177 43.3233 175.16 41.41 177.12C39.4967 179.033 37.1633 180.643 34.41 181.95C31.6567 183.21 28.5533 183.84 25.1 183.84ZM72.6524 183.84C69.1524 183.84 66.0024 183 63.2024 181.32C60.4024 179.64 58.1858 177.353 56.5524 174.46C54.9191 171.52 54.1024 168.23 54.1024 164.59C54.1024 160.903 54.9191 157.613 56.5524 154.72C58.1858 151.827 60.4024 149.54 63.2024 147.86C66.0024 146.18 69.1524 145.34 72.6524 145.34C76.1991 145.34 79.3491 146.18 82.1024 147.86C84.9024 149.54 87.1191 151.827 88.7524 154.72C90.3858 157.613 91.2024 160.903 91.2024 164.59C91.2024 168.23 90.3858 171.52 88.7524 174.46C87.1191 177.353 84.9024 179.64 82.1024 181.32C79.3491 183 76.1991 183.84 72.6524 183.84ZM72.6524 180.83C75.4991 180.83 78.0658 180.13 80.3524 178.73C82.6391 177.283 84.4591 175.323 85.8124 172.85C87.1658 170.377 87.8424 167.623 87.8424 164.59C87.8424 161.51 87.1658 158.757 85.8124 156.33C84.5058 153.857 82.7091 151.92 80.4224 150.52C78.1358 149.073 75.5691 148.35 72.7224 148.35C69.8291 148.35 67.2158 149.073 64.8824 150.52C62.5958 151.92 60.7758 153.857 59.4224 156.33C58.1158 158.757 57.4624 161.51 57.4624 164.59C57.4624 167.623 58.1391 170.377 59.4924 172.85C60.8458 175.323 62.6658 177.283 64.9524 178.73C67.2391 180.13 69.8058 180.83 72.6524 180.83ZM101.99 183V146.18H105.14V153.95L104.3 153.6C105.047 151.127 106.517 149.143 108.71 147.65C110.95 146.11 113.54 145.34 116.48 145.34C118.953 145.34 121.24 145.9 123.34 147.02C125.44 148.14 127.12 149.727 128.38 151.78C129.687 153.787 130.34 156.143 130.34 158.85V183H127.19V159.2C127.19 156.96 126.7 155.047 125.72 153.46C124.74 151.827 123.41 150.567 121.73 149.68C120.097 148.793 118.253 148.35 116.2 148.35C113.867 148.35 111.86 148.91 110.18 150.03C108.547 151.103 107.287 152.573 106.4 154.44C105.56 156.26 105.14 158.313 105.14 160.6V183H101.99ZM153.952 183.84C150.685 183.84 147.792 183.047 145.272 181.46C142.752 179.827 140.862 177.587 139.602 174.74L142.542 173.41C143.755 175.743 145.342 177.563 147.302 178.87C149.309 180.177 151.525 180.83 153.952 180.83C156.565 180.83 158.759 180.177 160.532 178.87C162.352 177.563 163.262 175.837 163.262 173.69C163.262 172.57 163.005 171.567 162.492 170.68C161.979 169.793 161.209 169.023 160.182 168.37C159.202 167.67 157.989 167.133 156.542 166.76L150.452 165.08C147.465 164.287 145.225 163.073 143.732 161.44C142.239 159.76 141.492 157.73 141.492 155.35C141.492 153.39 141.982 151.663 142.962 150.17C143.989 148.63 145.365 147.44 147.092 146.6C148.819 145.76 150.732 145.34 152.832 145.34C155.819 145.34 158.525 146.11 160.952 147.65C163.425 149.143 165.129 151.127 166.062 153.6L162.982 155C161.955 152.9 160.555 151.267 158.782 150.1C157.009 148.933 155.025 148.35 152.832 148.35C150.499 148.35 148.562 149.003 147.022 150.31C145.482 151.617 144.712 153.273 144.712 155.28C144.712 156.307 144.945 157.24 145.412 158.08C145.879 158.873 146.579 159.573 147.512 160.18C148.445 160.787 149.589 161.277 150.942 161.65L157.102 163.4C160.135 164.24 162.469 165.547 164.102 167.32C165.735 169.047 166.552 171.123 166.552 173.55C166.552 175.51 165.992 177.283 164.872 178.87C163.752 180.41 162.235 181.623 160.322 182.51C158.455 183.397 156.332 183.84 153.952 183.84ZM190.412 183.84C187.985 183.84 185.722 183.303 183.622 182.23C181.522 181.157 179.819 179.593 178.512 177.54C177.205 175.487 176.552 172.967 176.552 169.98V146.18H179.702V169.98C179.702 172.313 180.192 174.297 181.172 175.93C182.199 177.563 183.552 178.8 185.232 179.64C186.912 180.433 188.732 180.83 190.692 180.83C193.072 180.83 195.079 180.293 196.712 179.22C198.392 178.1 199.652 176.607 200.492 174.74C201.332 172.873 201.752 170.82 201.752 168.58V146.18H204.902V183H201.752V175.23L202.592 175.58C201.845 178.007 200.375 179.99 198.182 181.53C196.035 183.07 193.445 183.84 190.412 183.84ZM217.244 183V130.01H220.394V183H217.244ZM245.433 183.42C242.587 183.42 240.393 182.65 238.853 181.11C237.313 179.57 236.543 177.26 236.543 174.18V148.98H229.543V146.18H233.043C234.257 146.18 235.143 145.877 235.703 145.27C236.263 144.663 236.543 143.707 236.543 142.4V137.5H239.693V146.18H247.673V148.98H239.693V174.18C239.693 175.02 239.81 175.93 240.043 176.91C240.323 177.89 240.883 178.73 241.723 179.43C242.61 180.083 243.94 180.41 245.713 180.41C246.087 180.41 246.553 180.387 247.113 180.34C247.673 180.293 248.117 180.247 248.443 180.2V183C247.977 183.14 247.417 183.233 246.763 183.28C246.157 183.373 245.713 183.42 245.433 183.42ZM259.217 183V146.18H262.367V183H259.217ZM259.217 138.55V130.85H262.367V138.55H259.217ZM274.666 183V146.18H277.816V153.95L276.976 153.6C277.723 151.127 279.193 149.143 281.386 147.65C283.626 146.11 286.216 145.34 289.156 145.34C291.629 145.34 293.916 145.9 296.016 147.02C298.116 148.14 299.796 149.727 301.056 151.78C302.363 153.787 303.016 156.143 303.016 158.85V183H299.866V159.2C299.866 156.96 299.376 155.047 298.396 153.46C297.416 151.827 296.086 150.567 294.406 149.68C292.773 148.793 290.929 148.35 288.876 148.35C286.543 148.35 284.536 148.91 282.856 150.03C281.223 151.103 279.963 152.573 279.076 154.44C278.236 156.26 277.816 158.313 277.816 160.6V183H274.666ZM331.598 198.4C329.218 198.4 327.001 198.003 324.948 197.21C322.941 196.463 321.168 195.413 319.628 194.06C318.088 192.753 316.874 191.283 315.988 189.65L318.648 188.11C320.001 190.397 321.798 192.193 324.038 193.5C326.278 194.807 328.798 195.46 331.598 195.46C333.931 195.46 336.148 194.97 338.248 193.99C340.394 193.057 342.144 191.563 343.498 189.51C344.898 187.503 345.598 184.913 345.598 181.74V171.17L346.298 172.36C344.991 175.393 342.961 177.843 340.208 179.71C337.501 181.53 334.374 182.44 330.828 182.44C327.421 182.44 324.364 181.6 321.658 179.92C318.998 178.24 316.898 176 315.358 173.2C313.818 170.4 313.048 167.297 313.048 163.89C313.048 160.483 313.818 157.38 315.358 154.58C316.898 151.78 318.998 149.54 321.658 147.86C324.364 146.18 327.421 145.34 330.828 145.34C334.374 145.34 337.501 146.273 340.208 148.14C342.961 149.96 344.991 152.387 346.298 155.42L345.598 156.61V146.18H348.748V181.74C348.748 184.96 348.001 187.83 346.508 190.35C345.061 192.87 343.054 194.83 340.488 196.23C337.921 197.677 334.958 198.4 331.598 198.4ZM330.828 179.29C333.674 179.29 336.171 178.613 338.318 177.26C340.511 175.86 342.238 173.993 343.498 171.66C344.758 169.327 345.388 166.737 345.388 163.89C345.388 160.997 344.758 158.407 343.498 156.12C342.238 153.787 340.511 151.943 338.318 150.59C336.171 149.19 333.674 148.49 330.828 148.49C327.981 148.49 325.461 149.19 323.268 150.59C321.121 151.943 319.441 153.787 318.228 156.12C317.014 158.453 316.408 161.043 316.408 163.89C316.408 166.737 317.014 169.327 318.228 171.66C319.441 173.993 321.121 175.86 323.268 177.26C325.461 178.613 327.981 179.29 330.828 179.29Z" fill="#06283D"/>
</svg>
