<svg xmlns="http://www.w3.org/2000/svg" width="190" height="190" viewBox="0 0 190 190" fill="none"><path d="M80.4704 184.063H20.7812C12.5875 184.063 5.9375 177.413 5.9375 169.219V20.7812C5.9375 12.5875 12.5875 5.9375 20.7812 5.9375H127.656C135.85 5.9375 142.5 12.5875 142.5 20.7812V90.5153C142.5 92.1481 141.164 93.484 139.531 93.484C137.898 93.484 136.562 92.1481 136.562 90.5153V20.7812C136.562 15.8828 132.555 11.875 127.656 11.875H20.7812C15.8828 11.875 11.875 15.8828 11.875 20.7812V169.219C11.875 174.117 15.8828 178.125 20.7812 178.125H80.4704C82.1032 178.125 83.4392 179.461 83.4392 181.094C83.4392 182.727 82.1032 184.063 80.4704 184.063Z" fill="#0A0F26"></path><path d="M171.742 184.062H101.383C96.8406 184.062 92.8328 181.747 90.6359 177.858C88.4984 174.117 88.5578 169.664 90.7547 165.953L125.934 106.905C128.161 103.164 132.139 100.938 136.562 100.938C140.986 100.938 144.964 103.164 147.191 106.905L182.37 165.953C184.567 169.664 184.627 174.117 182.489 177.858C180.292 181.747 176.255 184.062 171.742 184.062ZM136.562 106.875C134.247 106.875 132.169 108.033 131.041 109.963L95.8609 169.011C94.7328 170.881 94.7328 173.048 95.8015 174.948C96.9297 176.938 99.0375 178.125 101.412 178.125H171.772C174.147 178.125 176.225 176.938 177.383 174.948C178.452 173.048 178.452 170.881 177.323 169.011L142.144 109.963C140.986 108.033 138.937 106.875 136.622 106.875H136.562Z" fill="#14A0ED"></path><path d="M136.562 151.406C134.93 151.406 133.594 150.07 133.594 148.438V118.75C133.594 117.117 134.93 115.781 136.562 115.781C138.195 115.781 139.531 117.117 139.531 118.75V148.438C139.531 150.07 138.195 151.406 136.562 151.406Z" fill="#14A0ED"></path><path d="M136.562 169.219C134.93 169.219 133.594 167.883 133.594 166.25V160.312C133.594 158.68 134.93 157.344 136.562 157.344C138.195 157.344 139.531 158.68 139.531 160.312V166.25C139.531 167.883 138.195 169.219 136.562 169.219Z" fill="#14A0ED"></path><path d="M59.375 71.25H35.625C32.3594 71.25 29.6875 68.5781 29.6875 65.3125V41.5625C29.6875 38.2969 32.3594 35.625 35.625 35.625H50.4688C52.1016 35.625 53.4375 36.9609 53.4375 38.5938C53.4375 40.2266 52.1016 41.5625 50.4688 41.5625H35.625V65.3125H59.375V59.375C59.375 57.7422 60.7109 56.4062 62.3438 56.4062C63.9766 56.4062 65.3125 57.7422 65.3125 59.375V65.3125C65.3125 68.5781 62.6406 71.25 59.375 71.25Z" fill="#0A0F26"></path><path d="M50.4687 59.375C49.6969 59.375 48.9547 59.0781 48.3609 58.514L42.4234 52.5765C41.2656 51.4187 41.2656 49.5484 42.4234 48.3906C43.5812 47.2328 45.4515 47.2328 46.6094 48.3906L50.439 52.2203L66.1437 36.5156C67.3015 35.3578 69.1719 35.3578 70.3297 36.5156C71.4875 37.6734 71.4875 39.5437 70.3297 40.7015L52.5172 58.514C51.9234 59.1078 51.1812 59.375 50.4093 59.375H50.4687Z" fill="#14A0ED"></path><path d="M59.375 121.719H35.625C32.3594 121.719 29.6875 119.047 29.6875 115.781V92.0312C29.6875 88.7656 32.3594 86.0938 35.625 86.0938H50.4688C52.1016 86.0938 53.4375 87.4297 53.4375 89.0625C53.4375 90.6953 52.1016 92.0312 50.4688 92.0312H35.625V115.781H59.375V109.844C59.375 108.211 60.7109 106.875 62.3438 106.875C63.9766 106.875 65.3125 108.211 65.3125 109.844V115.781C65.3125 119.047 62.6406 121.719 59.375 121.719Z" fill="#0A0F26"></path><path d="M50.4687 109.844C49.6969 109.844 48.9547 109.547 48.3609 108.983L42.4234 103.045C41.2656 101.887 41.2656 100.017 42.4234 98.8593C43.5812 97.7015 45.4515 97.7015 46.6094 98.8593L50.439 102.689L66.1437 86.9843C67.3015 85.8265 69.1719 85.8265 70.3297 86.9843C71.4875 88.1421 71.4875 90.0125 70.3297 91.1703L52.5172 108.983C51.9234 109.577 51.1812 109.844 50.4093 109.844H50.4687Z" fill="#14A0ED"></path><path d="M97.9688 65.3125H80.1562C78.5234 65.3125 77.1875 63.9766 77.1875 62.3438C77.1875 60.7109 78.5234 59.375 80.1562 59.375H97.9688C99.6016 59.375 100.938 60.7109 100.938 62.3438C100.938 63.9766 99.6016 65.3125 97.9688 65.3125Z" fill="#0A0F26"></path><path d="M115.781 47.5H80.1562C78.5234 47.5 77.1875 46.1641 77.1875 44.5312C77.1875 42.8984 78.5234 41.5625 80.1562 41.5625H115.781C117.414 41.5625 118.75 42.8984 118.75 44.5312C118.75 46.1641 117.414 47.5 115.781 47.5Z" fill="#0A0F26"></path><path d="M97.9688 115.781H80.1562C78.5234 115.781 77.1875 114.445 77.1875 112.812C77.1875 111.18 78.5234 109.844 80.1562 109.844H97.9688C99.6016 109.844 100.938 111.18 100.938 112.812C100.938 114.445 99.6016 115.781 97.9688 115.781Z" fill="#0A0F26"></path><path d="M115.781 97.9688H80.1562C78.5234 97.9688 77.1875 96.6328 77.1875 95C77.1875 93.3672 78.5234 92.0312 80.1562 92.0312H115.781C117.414 92.0312 118.75 93.3672 118.75 95C118.75 96.6328 117.414 97.9688 115.781 97.9688Z" fill="#0A0F26"></path></svg>