<svg xmlns="http://www.w3.org/2000/svg" width="190" height="190" viewBox="0 0 190 190" fill="none"><path d="M95 157.344C94.7031 157.344 94.4063 157.284 94.1094 157.195C58.2469 145.944 41.5625 126.677 41.5625 96.5734V53.8828C41.5625 52.6359 42.3344 51.5078 43.5219 51.0922L93.9906 32.8344C94.6437 32.5969 95.3563 32.5969 96.0094 32.8344L146.478 51.0922C147.666 51.5078 148.438 52.6359 148.438 53.8828V96.5734C148.438 126.706 131.753 145.944 95.8906 157.195C95.5937 157.284 95.2969 157.344 95 157.344ZM47.5 55.9906V96.6031C47.5 123.5 62.6109 140.897 95 151.287C127.389 140.897 142.5 123.5 142.5 96.6031V55.9906L95 38.8016L47.5 55.9906Z" fill="#0A0F26"></path><path d="M95 172.188C94.7031 172.188 94.4062 172.158 94.1391 172.069C48.1531 158.116 26.7188 134.277 26.7188 96.9891V43.6109C26.7188 42.3344 27.5203 41.2359 28.7078 40.8203L94.0203 17.9906C94.6438 17.7531 95.3563 17.7531 95.9797 17.9906L161.292 40.8203C162.48 41.2359 163.281 42.3641 163.281 43.6109V96.9594C163.281 134.247 141.847 158.116 95.8609 172.039C95.5938 172.128 95.2969 172.158 95 172.158V172.188ZM32.6562 45.7187V96.9594C32.6562 131.011 52.4578 153.009 95 166.102C137.542 153.009 157.344 131.011 157.344 96.9594V45.7187L95 23.9281L32.6562 45.7187Z" fill="#14A0ED"></path><path d="M8.90625 59.375C7.27344 59.375 5.9375 58.0391 5.9375 56.4062V20.7812C5.9375 12.5875 12.5875 5.9375 20.7812 5.9375H56.4062C58.0391 5.9375 59.375 7.27344 59.375 8.90625C59.375 10.5391 58.0391 11.875 56.4062 11.875H20.7812C15.8828 11.875 11.875 15.8828 11.875 20.7812V56.4062C11.875 58.0391 10.5391 59.375 8.90625 59.375Z" fill="#0A0F26"></path><path d="M181.094 59.375C179.461 59.375 178.125 58.0391 178.125 56.4062V20.7812C178.125 15.8828 174.117 11.875 169.219 11.875H133.594C131.961 11.875 130.625 10.5391 130.625 8.90625C130.625 7.27344 131.961 5.9375 133.594 5.9375H169.219C177.412 5.9375 184.062 12.5875 184.062 20.7812V56.4062C184.062 58.0391 182.727 59.375 181.094 59.375Z" fill="#0A0F26"></path><path d="M169.219 184.062H133.594C131.961 184.062 130.625 182.727 130.625 181.094C130.625 179.461 131.961 178.125 133.594 178.125H169.219C174.117 178.125 178.125 174.117 178.125 169.219V133.594C178.125 131.961 179.461 130.625 181.094 130.625C182.727 130.625 184.062 131.961 184.062 133.594V169.219C184.062 177.412 177.412 184.062 169.219 184.062Z" fill="#0A0F26"></path><path d="M56.4062 184.062H20.7812C12.5875 184.062 5.9375 177.412 5.9375 169.219V133.594C5.9375 131.961 7.27344 130.625 8.90625 130.625C10.5391 130.625 11.875 131.961 11.875 133.594V169.219C11.875 174.117 15.8828 178.125 20.7812 178.125H56.4062C58.0391 178.125 59.375 179.461 59.375 181.094C59.375 182.727 58.0391 184.062 56.4062 184.062Z" fill="#0A0F26"></path><path d="M116.375 115.128C119.73 109.933 121.719 103.491 121.719 96.4843C121.719 89.4781 119.7 83.0359 116.375 77.8406L123.827 70.389C124.984 69.2312 124.984 67.3609 123.827 66.2031C122.669 65.0453 120.798 65.0453 119.641 66.2031L112.664 73.1797C111.744 72.2297 110.764 71.3093 109.695 70.5078C109.755 70.2703 109.844 70.0328 109.844 69.7953C109.844 60.8 103.194 53.4672 95 53.4672C86.8062 53.4672 80.1562 60.8 80.1562 69.7953C80.1562 70.0625 80.2453 70.2703 80.3047 70.5078C79.2656 71.3093 78.2859 72.2 77.3359 73.1797L70.3593 66.2031C69.2015 65.0453 67.3312 65.0453 66.1734 66.2031C65.0156 67.3609 65.0156 69.2312 66.1734 70.389L73.625 77.8406C70.2703 83.0359 68.2812 89.4781 68.2812 96.4843C68.2812 103.491 70.3 109.933 73.625 115.128L66.1734 122.58C65.0156 123.737 65.0156 125.608 66.1734 126.766C66.7672 127.359 67.5093 127.627 68.2812 127.627C69.0531 127.627 69.7953 127.33 70.389 126.766L77.3656 119.789C82.0859 124.658 88.2609 127.627 95.0297 127.627C101.798 127.627 107.973 124.658 112.694 119.789L119.67 126.766C120.264 127.359 121.006 127.627 121.778 127.627C122.55 127.627 123.292 127.33 123.886 126.766C125.044 125.608 125.044 123.737 123.886 122.58L116.434 115.128H116.375ZM76.089 86.0937C79.3547 77.3656 86.5984 71.25 95 71.25C103.402 71.25 110.645 77.3656 113.911 86.0937H76.089ZM95 59.375C99.0672 59.375 102.481 62.6109 103.55 66.975C100.878 65.9062 97.9984 65.3125 95 65.3125C92.0015 65.3125 89.1515 65.9062 86.45 66.975C87.489 62.6109 90.9031 59.375 95 59.375ZM74.2187 96.4843C74.2187 94.9703 74.3375 93.4859 74.575 92.0312H92.0312V121.422C81.9672 119.67 74.2187 109.161 74.2187 96.4843ZM97.9687 121.422V92.0312H115.425C115.633 93.4859 115.781 94.9703 115.781 96.4843C115.781 109.161 108.033 119.67 97.9687 121.422Z" fill="#14A0ED"></path></svg>