<svg xmlns="http://www.w3.org/2000/svg" width="190" height="190" viewBox="0 0 190 190" fill="none"><path d="M138.492 74.2188H127.656C126.023 74.2188 124.688 72.8828 124.688 71.25C124.688 69.6172 126.023 68.2812 127.656 68.2812H138.492C140.036 68.2812 141.372 67.2719 141.698 65.9063L148.378 36.2187C148.616 35.0906 148.141 34.2891 147.814 33.8734C147.191 33.1016 146.241 32.6562 145.172 32.6562H136.563C134.93 32.6562 133.594 31.3203 133.594 29.6875C133.594 28.0547 134.93 26.7188 136.563 26.7188H145.172C148.052 26.7188 150.694 27.9656 152.445 30.1625C154.197 32.3594 154.731 34.9422 154.167 37.525L147.488 67.2125C146.567 71.2797 142.797 74.2188 138.492 74.2188Z" fill="#14A0ED"></path><path d="M77.1875 169.219H35.625C33.9922 169.219 32.6562 167.883 32.6562 166.25C32.6562 164.617 33.9922 163.281 35.625 163.281H77.1875C78.8203 163.281 80.1562 161.945 80.1562 160.312V149.477C80.1562 148.289 79.4141 147.191 78.2859 146.745L70.8937 143.777C67.5687 142.47 65.2828 139.145 65.2828 135.523V88.6765C65.2828 87.0437 66.6187 85.7078 68.2516 85.7078C69.8844 85.7078 71.2203 87.0437 71.2203 88.6765V135.523C71.2203 136.711 71.9625 137.809 73.0906 138.255L80.4828 141.223C83.8078 142.53 86.0938 145.855 86.0938 149.477V160.312C86.0938 165.211 82.0859 169.219 77.1875 169.219Z" fill="#0A0F26"></path><path d="M109.844 65.3125C109.844 65.3125 109.695 65.3125 109.636 65.3125L26.511 59.375C24.8781 59.2562 23.6313 57.8312 23.75 56.1984C23.8688 54.5656 25.2641 53.3484 26.9266 53.4375L110.052 59.375C111.684 59.4937 112.931 60.9187 112.813 62.5515C112.694 64.1249 111.388 65.3125 109.844 65.3125Z" fill="#14A0ED"></path><path d="M35.625 169.219H29.6875C24.7891 169.219 20.7812 165.211 20.7812 160.312V85.2625C20.7812 83.6296 22.1172 82.2937 23.75 82.2937C25.3828 82.2937 26.7188 83.6296 26.7188 85.2625V160.312C26.7188 161.945 28.0547 163.281 29.6875 163.281H32.6562V86.1828C32.6562 84.55 33.9922 83.214 35.625 83.214C37.2578 83.214 38.5938 84.55 38.5938 86.1828V166.25C38.5938 167.883 37.2578 169.219 35.625 169.219Z" fill="#14A0ED"></path><path d="M139.531 181.094C114.98 181.094 95 161.114 95 136.562C95 112.011 114.98 92.0312 139.531 92.0312C164.083 92.0312 184.062 112.011 184.062 136.562C184.062 161.114 164.083 181.094 139.531 181.094ZM139.531 97.9688C118.245 97.9688 100.938 115.277 100.938 136.562C100.938 157.848 118.245 175.156 139.531 175.156C160.817 175.156 178.125 157.848 178.125 136.562C178.125 115.277 160.817 97.9688 139.531 97.9688Z" fill="#14A0ED"></path><path d="M113.02 83.1249C112.575 83.1249 112.1 83.1249 111.655 83.0656L22.4141 76.2374C13.1813 75.5249 5.9375 67.7468 5.9375 58.514V38.0593C5.9375 29.0046 12.7359 21.4046 21.7609 20.3953L122.431 8.99526C127.419 8.43119 132.169 10.2421 135.553 13.9234C138.908 17.6046 140.244 22.4734 139.205 27.3421L130.506 68.964C128.784 77.2468 121.392 83.1249 113.05 83.1249H113.02ZM123.084 14.9031L22.4437 26.3031C16.4172 26.9859 11.875 32.0328 11.875 38.0593V58.514C11.875 64.6593 16.7141 69.8546 22.8594 70.3296L112.1 77.1578C118.097 77.6328 123.441 73.5656 124.658 67.7765L133.356 26.1546C133.98 23.1859 133.148 20.1874 131.1 17.9609C129.052 15.7046 126.083 14.5765 123.055 14.9328L123.084 14.9031Z" fill="#0A0F26"></path><path d="M130.625 154.375C129.853 154.375 129.111 154.078 128.517 153.514L116.642 141.639C115.484 140.481 115.484 138.611 116.642 137.453C117.8 136.295 119.67 136.295 120.828 137.453L130.595 147.22L158.175 119.641C159.333 118.483 161.203 118.483 162.361 119.641C163.519 120.798 163.519 122.669 162.361 123.827L132.673 153.514C132.08 154.108 131.337 154.375 130.566 154.375H130.625Z" fill="#0A0F26"></path></svg>