<svg xmlns="http://www.w3.org/2000/svg" width="190" height="190" viewBox="0 0 190 190" fill="none"><path d="M95 163.875C94.7031 163.875 94.3766 163.816 94.1094 163.727L90.4875 162.569C54.0906 150.931 35.625 128.666 35.625 96.425V49.7265C35.625 48.4797 36.3969 47.3812 37.5547 46.9359L93.9609 26.0953C94.6141 25.8578 95.3563 25.8578 96.0094 26.0953L152.416 46.9359C153.573 47.3812 154.345 48.4797 154.345 49.7265V96.425C154.345 128.666 135.88 150.931 99.4828 162.569L95.8609 163.727C95.5641 163.816 95.2672 163.875 94.9703 163.875H95ZM41.5625 51.8047V96.425C41.5625 125.816 58.6328 146.152 92.2984 156.928L95 157.789L97.7016 156.928C131.367 146.152 148.438 125.816 148.438 96.425V51.8047L95 32.0625L41.5625 51.8047Z" fill="#14A0ED"></path><path d="M95 148.438C94.7031 148.438 94.3766 148.378 94.0797 148.289C64.7188 138.789 50.4688 121.778 50.4688 96.3359V60.0578C50.4688 58.8109 51.2406 57.7125 52.3984 57.2672L93.9609 41.7406C94.6141 41.5031 95.3562 41.5031 96.0391 41.7406L137.602 57.2672C138.759 57.7125 139.531 58.8109 139.531 60.0578V96.3359C139.531 121.778 125.252 138.789 95.9203 148.289C95.6234 148.378 95.3266 148.438 95 148.438ZM56.4062 62.1062V96.3359C56.4062 118.928 68.6672 133.564 95 142.352C121.333 133.594 133.594 118.958 133.594 96.3359V62.1062L95 47.6781L56.4062 62.1062Z" fill="#0A0F26"></path><path d="M17.8125 29.6875C20.0094 29.6875 22.0281 29.0344 23.8094 27.9953L35.4469 39.6328C36.0406 40.2266 36.7828 40.4937 37.5547 40.4937C38.3266 40.4937 39.0688 40.1969 39.6625 39.6328C40.8203 38.475 40.8203 36.6047 39.6625 35.4469L28.025 23.8094C29.0641 22.0578 29.7172 20.0094 29.7172 17.8125C29.7172 11.2516 24.4031 5.9375 17.8422 5.9375C11.2813 5.9375 5.9375 11.2516 5.9375 17.8125C5.9375 24.3734 11.2516 29.6875 17.8125 29.6875ZM17.8125 11.875C21.0781 11.875 23.75 14.5469 23.75 17.8125C23.75 19.4453 23.0969 20.9297 21.9984 21.9984C20.9297 23.0672 19.4453 23.75 17.8125 23.75C14.5469 23.75 11.875 21.0781 11.875 17.8125C11.875 14.5469 14.5469 11.875 17.8125 11.875Z" fill="#0A0F26"></path><path d="M172.188 160.313C169.991 160.313 167.972 160.966 166.191 162.005L147.339 143.153C146.181 141.995 144.311 141.995 143.153 143.153C141.995 144.311 141.995 146.181 143.153 147.339L162.005 166.191C160.966 167.942 160.313 169.991 160.313 172.188C160.313 178.748 165.627 184.063 172.188 184.063C178.748 184.063 184.063 178.748 184.063 172.188C184.063 165.627 178.748 160.313 172.188 160.313ZM172.188 178.125C168.922 178.125 166.25 175.453 166.25 172.188C166.25 170.555 166.903 169.07 168.002 168.002C169.07 166.933 170.555 166.25 172.188 166.25C175.453 166.25 178.125 168.922 178.125 172.188C178.125 175.453 175.453 178.125 172.188 178.125Z" fill="#0A0F26"></path><path d="M152.445 40.5234C153.217 40.5234 153.959 40.2265 154.553 39.6625L166.191 28.025C167.942 29.064 169.991 29.7172 172.187 29.7172C178.748 29.7172 184.062 24.4031 184.062 17.8422C184.062 11.2812 178.748 5.96716 172.187 5.96716C165.627 5.96716 160.312 11.2812 160.312 17.8422C160.312 20.039 160.966 22.0578 162.005 23.839L150.367 35.4765C149.209 36.6343 149.209 38.5047 150.367 39.6625C150.961 40.2562 151.703 40.5234 152.475 40.5234H152.445ZM172.187 11.875C175.453 11.875 178.125 14.5468 178.125 17.8125C178.125 21.0781 175.453 23.75 172.187 23.75C170.555 23.75 169.07 23.0968 168.002 21.9984C166.933 20.9297 166.25 19.4453 166.25 17.8125C166.25 14.5468 168.922 11.875 172.187 11.875Z" fill="#0A0F26"></path><path d="M42.6609 143.123L23.8094 161.975C22.0578 160.936 20.0094 160.283 17.8125 160.283C11.2516 160.283 5.9375 165.597 5.9375 172.158C5.9375 178.719 11.2516 184.033 17.8125 184.033C24.3734 184.033 29.6875 178.719 29.6875 172.158C29.6875 169.961 29.0344 167.942 27.9953 166.161L46.8469 147.309C48.0047 146.152 48.0047 144.281 46.8469 143.123C45.6891 141.966 43.8187 141.966 42.6609 143.123ZM17.8125 178.125C14.5469 178.125 11.875 175.453 11.875 172.188C11.875 168.922 14.5469 166.25 17.8125 166.25C19.4453 166.25 20.9297 166.903 21.9984 168.002C23.0672 169.07 23.75 170.555 23.75 172.188C23.75 175.453 21.0781 178.125 17.8125 178.125Z" fill="#0A0F26"></path><path d="M112.812 83.125H109.844V77.1875C109.844 68.9938 103.194 62.3438 95 62.3438C86.8063 62.3438 80.1562 68.9938 80.1562 77.1875V83.125H77.1875C73.9219 83.125 71.25 85.7969 71.25 89.0625V112.812C71.25 116.078 73.9219 118.75 77.1875 118.75H112.812C116.078 118.75 118.75 116.078 118.75 112.812V89.0625C118.75 85.7969 116.078 83.125 112.812 83.125ZM86.0938 77.1875C86.0938 72.2891 90.1016 68.2812 95 68.2812C99.8984 68.2812 103.906 72.2891 103.906 77.1875V83.125H86.0938V77.1875ZM77.1875 112.812V89.0625H112.812V112.812H77.1875Z" fill="#14A0ED"></path><path d="M95 106.875C93.3672 106.875 92.0312 105.539 92.0312 103.906V97.9688C92.0312 96.3359 93.3672 95 95 95C96.6328 95 97.9688 96.3359 97.9688 97.9688V103.906C97.9688 105.539 96.6328 106.875 95 106.875Z" fill="#14A0ED"></path></svg>