<svg xmlns="http://www.w3.org/2000/svg" width="190" height="190" viewBox="0 0 190 190" fill="none"><path d="M181.094 148.438H172.188V59.375C172.188 52.8141 166.873 47.5 160.312 47.5H141.639C140.006 47.5 138.67 48.8359 138.67 50.4688C138.67 52.1016 140.006 53.4375 141.639 53.4375H160.312C163.578 53.4375 166.25 56.1094 166.25 59.375V148.438H112.812C111.833 148.438 110.883 148.942 110.348 149.773L105.302 157.344H84.7281L79.6813 149.773C79.1172 148.942 78.1969 148.438 77.2172 148.438H23.75V59.375C23.75 56.1094 26.4219 53.4375 29.6875 53.4375H48.3609C49.9938 53.4375 51.3297 52.1016 51.3297 50.4688C51.3297 48.8359 49.9938 47.5 48.3609 47.5H29.6875C23.1266 47.5 17.8125 52.8141 17.8125 59.375V148.438H8.90625C7.27344 148.438 5.9375 149.773 5.9375 151.406V160.312C5.9375 173.405 16.5953 184.062 29.6875 184.062H160.312C173.405 184.062 184.062 173.405 184.062 160.312V151.406C184.062 149.773 182.727 148.438 181.094 148.438ZM178.125 160.312C178.125 170.139 170.139 178.125 160.312 178.125H29.6875C19.8609 178.125 11.875 170.139 11.875 160.312V154.375H75.5844L80.6312 161.945C81.1953 162.777 82.1156 163.281 83.0953 163.281H106.845C107.825 163.281 108.775 162.777 109.309 161.945L114.356 154.375H178.066V160.312H178.125Z" fill="#0A0F26"></path><path d="M123.827 83.125H66.1734C60.3844 83.125 55.1 80.0969 52.3391 75.2281C49.7562 70.5969 49.8453 65.1343 52.6062 60.5922L81.4328 13.389C84.2828 8.7281 89.3297 5.96716 94.9703 5.96716C100.611 5.96716 105.658 8.75779 108.508 13.389L137.334 60.5922C140.095 65.1343 140.214 70.5969 137.602 75.2281C134.87 80.0969 129.556 83.125 123.767 83.125H123.827ZM95 11.875C91.4375 11.875 88.2906 13.5969 86.5391 16.4765L57.7125 63.6797C56.05 66.4109 55.9906 69.5578 57.5344 72.3187C59.2562 75.3765 62.4922 77.1875 66.1734 77.1875H123.827C127.538 77.1875 130.744 75.3765 132.466 72.3187C134.009 69.5578 133.95 66.4109 132.288 63.6797L103.461 16.4765C101.709 13.5969 98.5328 11.875 95 11.875Z" fill="#0A0F26"></path><path d="M95 53.4375C93.3672 53.4375 92.0312 52.1016 92.0312 50.4688V26.7188C92.0312 25.0859 93.3672 23.75 95 23.75C96.6328 23.75 97.9688 25.0859 97.9688 26.7188V50.4688C97.9688 52.1016 96.6328 53.4375 95 53.4375Z" fill="#14A0ED"></path><path d="M95 68.2812C93.3672 68.2812 92.0312 66.9453 92.0312 65.3125V62.3438C92.0312 60.7109 93.3672 59.375 95 59.375C96.6328 59.375 97.9688 60.7109 97.9688 62.3438V65.3125C97.9688 66.9453 96.6328 68.2812 95 68.2812Z" fill="#14A0ED"></path><path d="M145.469 100.938H127.656C126.023 100.938 124.688 99.6016 124.688 97.9688C124.688 96.3359 126.023 95 127.656 95H145.469C147.102 95 148.438 96.3359 148.438 97.9688C148.438 99.6016 147.102 100.938 145.469 100.938Z" fill="#14A0ED"></path><path d="M115.781 100.938H44.5312C42.8984 100.938 41.5625 99.6016 41.5625 97.9688C41.5625 96.3359 42.8984 95 44.5312 95H115.781C117.414 95 118.75 96.3359 118.75 97.9688C118.75 99.6016 117.414 100.938 115.781 100.938Z" fill="#14A0ED"></path><path d="M56.4062 118.75H44.5312C42.8984 118.75 41.5625 117.414 41.5625 115.781C41.5625 114.148 42.8984 112.812 44.5312 112.812H56.4062C58.0391 112.812 59.375 114.148 59.375 115.781C59.375 117.414 58.0391 118.75 56.4062 118.75Z" fill="#14A0ED"></path><path d="M97.9688 118.75H68.2812C66.6484 118.75 65.3125 117.414 65.3125 115.781C65.3125 114.148 66.6484 112.812 68.2812 112.812H97.9688C99.6016 112.812 100.938 114.148 100.938 115.781C100.938 117.414 99.6016 118.75 97.9688 118.75Z" fill="#14A0ED"></path><path d="M145.469 118.75H109.844C108.211 118.75 106.875 117.414 106.875 115.781C106.875 114.148 108.211 112.812 109.844 112.812H145.469C147.102 112.812 148.438 114.148 148.438 115.781C148.438 117.414 147.102 118.75 145.469 118.75Z" fill="#14A0ED"></path><path d="M80.1562 136.562H44.5312C42.8984 136.562 41.5625 135.227 41.5625 133.594C41.5625 131.961 42.8984 130.625 44.5312 130.625H80.1562C81.7891 130.625 83.125 131.961 83.125 133.594C83.125 135.227 81.7891 136.562 80.1562 136.562Z" fill="#14A0ED"></path><path d="M145.469 136.562H92.0312C90.3984 136.562 89.0625 135.227 89.0625 133.594C89.0625 131.961 90.3984 130.625 92.0312 130.625H145.469C147.102 130.625 148.438 131.961 148.438 133.594C148.438 135.227 147.102 136.562 145.469 136.562Z" fill="#14A0ED"></path></svg>