<svg xmlns="http://www.w3.org/2000/svg" width="190" height="190" viewBox="0 0 190 190" fill="none"><path d="M95 184.063C94.7031 184.063 94.4062 184.033 94.1391 183.944L88.9141 182.37C39.7516 167.467 14.8438 138.73 14.8438 96.9297V35.625C14.8438 34.3484 15.6453 33.2203 16.8328 32.8344L94.0203 6.08594C94.6438 5.87813 95.3266 5.87813 95.95 6.08594L173.137 32.8047C174.325 33.2203 175.127 34.3484 175.127 35.5953V96.9C175.127 138.67 150.219 167.408 101.056 182.341L95.8312 183.914C95.5641 184.003 95.2672 184.033 94.9703 184.033L95 184.063ZM90.6359 176.67L95 178.006L99.3641 176.67C145.706 162.598 169.219 135.791 169.219 96.9297V37.7328L95 12.0531L20.7812 37.7328V96.9297C20.7812 135.791 44.2938 162.628 90.6359 176.67Z" fill="#14A0ED"></path><path d="M95 166.25C94.7031 166.25 94.4062 166.22 94.1391 166.131C52.1906 153.277 32.6562 131.248 32.6562 96.8109V47.5C32.6562 46.2531 33.4578 45.125 34.6453 44.7094L94.0203 23.9281C94.6438 23.6906 95.3563 23.6906 95.9797 23.9281L155.355 44.7094C156.542 45.125 157.344 46.2531 157.344 47.5V96.8109C157.344 131.248 137.809 153.247 95.8609 166.131C95.5641 166.22 95.2969 166.25 95 166.25ZM38.5938 49.6078V96.8109C38.5938 128.013 56.525 148.141 95 160.164C133.475 148.141 151.406 128.013 151.406 96.8109V49.6078L95 29.8656L38.5938 49.6078Z" fill="#0A0F26"></path><path d="M76.5641 133.594C74.9609 133.594 73.4469 132.97 72.2891 131.813L58.1875 117.711C57.0297 116.583 56.4062 115.039 56.4062 113.436C56.4062 111.833 57.0297 110.319 58.1875 109.161L109.191 58.1578C111.536 55.8125 115.366 55.8125 117.741 58.1578L131.842 72.2594C133 73.3875 133.623 74.9313 133.623 76.5344C133.623 78.1375 133 79.6813 131.842 80.8094L80.8391 131.813C79.7109 132.941 78.1969 133.594 76.5641 133.594ZM113.555 62.3734L62.4031 113.377L76.5047 127.627L127.656 76.6234V76.475L113.555 62.3734Z" fill="#14A0ED"></path><path d="M113.436 133.594C111.892 133.594 110.378 133 109.191 131.842L101.294 123.945C100.136 122.787 100.136 120.917 101.294 119.759C102.452 118.602 104.322 118.602 105.48 119.759L113.347 127.627L127.627 113.525L119.759 105.48C118.602 104.322 118.602 102.452 119.759 101.294C120.917 100.136 122.788 100.136 123.945 101.294L131.813 109.161C134.158 111.566 134.158 115.306 131.813 117.681L117.681 131.813C116.464 133 114.92 133.594 113.377 133.594H113.436Z" fill="#14A0ED"></path><path d="M68.1328 89.5672C67.3609 89.5672 66.6187 89.2703 66.025 88.7063L58.1578 80.8391C55.8125 78.4344 55.8125 74.6938 58.1578 72.2891L72.289 58.1578C74.6937 55.8125 78.4343 55.8125 80.839 58.1578L88.7359 66.0547C89.8937 67.2125 89.8937 69.0828 88.7359 70.2406C87.5781 71.3984 85.7078 71.3984 84.55 70.2406L76.6828 62.3734L62.4031 76.475L70.2703 84.5203C71.4281 85.6781 71.4281 87.5484 70.2703 88.7063C69.6765 89.3 68.9343 89.5672 68.1625 89.5672H68.1328Z" fill="#14A0ED"></path></svg>