<svg xmlns="http://www.w3.org/2000/svg" width="190" height="190" viewBox="0 0 190 190" fill="none"><path d="M95 5.9375C76.9797 5.9375 62.3438 20.5734 62.3438 38.5938V56.4062C62.3438 58.0391 63.6797 59.375 65.3125 59.375H124.688C126.32 59.375 127.656 58.0391 127.656 56.4062V38.5938C127.656 20.5734 113.02 5.9375 95 5.9375ZM80.1562 53.4375V38.5938C80.1562 30.4 86.8063 23.75 95 23.75C103.194 23.75 109.844 30.4 109.844 38.5938V53.4375H80.1562ZM121.719 53.4375H115.781V38.5938C115.781 27.1344 106.459 17.8125 95 17.8125C83.5406 17.8125 74.2188 27.1344 74.2188 38.5938V53.4375H68.2812V38.5938C68.2812 23.8687 80.275 11.875 95 11.875C109.725 11.875 121.719 23.8687 121.719 38.5938V53.4375Z" fill="#14A0ED"></path><path d="M130.625 124.688H59.375C51.1813 124.688 44.5312 118.037 44.5312 109.844V68.2812C44.5312 60.0875 51.1813 53.4375 59.375 53.4375H130.625C138.819 53.4375 145.469 60.0875 145.469 68.2812V109.844C145.469 118.037 138.819 124.688 130.625 124.688ZM59.375 59.375C54.4766 59.375 50.4688 63.3828 50.4688 68.2812V109.844C50.4688 114.742 54.4766 118.75 59.375 118.75H130.625C135.523 118.75 139.531 114.742 139.531 109.844V68.2812C139.531 63.3828 135.523 59.375 130.625 59.375H59.375Z" fill="#0A0F26"></path><path d="M95 100.938C88.4391 100.938 83.125 95.6234 83.125 89.0625C83.125 82.5016 88.4391 77.1875 95 77.1875C101.561 77.1875 106.875 82.5016 106.875 89.0625C106.875 95.6234 101.561 100.938 95 100.938ZM95 83.125C91.7344 83.125 89.0625 85.7969 89.0625 89.0625C89.0625 92.3281 91.7344 95 95 95C98.2656 95 100.938 92.3281 100.938 89.0625C100.938 85.7969 98.2656 83.125 95 83.125Z" fill="#0A0F26"></path><path d="M169.219 184.062H20.7812C14.2203 184.062 8.90625 178.748 8.90625 172.188V142.5C8.90625 135.939 14.2203 130.625 20.7812 130.625H169.219C175.78 130.625 181.094 135.939 181.094 142.5V172.188C181.094 178.748 175.78 184.062 169.219 184.062ZM20.7812 136.562C17.5156 136.562 14.8438 139.234 14.8438 142.5V172.188C14.8438 175.453 17.5156 178.125 20.7812 178.125H169.219C172.484 178.125 175.156 175.453 175.156 172.188V142.5C175.156 139.234 172.484 136.562 169.219 136.562H20.7812Z" fill="#0A0F26"></path><path d="M152.623 157.343L159.422 150.545C160.58 149.387 160.58 147.517 159.422 146.359C158.264 145.201 156.394 145.201 155.236 146.359L148.437 153.157L141.639 146.359C140.481 145.201 138.611 145.201 137.453 146.359C136.295 147.517 136.295 149.387 137.453 150.545L144.252 157.343L137.453 164.142C136.295 165.3 136.295 167.17 137.453 168.328C138.047 168.922 138.789 169.189 139.561 169.189C140.333 169.189 141.075 168.892 141.669 168.328L148.467 161.529L155.266 168.328C155.859 168.922 156.602 169.189 157.373 169.189C158.145 169.189 158.887 168.892 159.481 168.328C160.639 167.17 160.639 165.3 159.481 164.142L152.683 157.343H152.623Z" fill="#14A0ED"></path><path d="M123.827 146.33C122.669 145.172 120.798 145.172 119.641 146.33L112.842 153.128L106.044 146.33C104.886 145.172 103.016 145.172 101.858 146.33C100.7 147.487 100.7 149.358 101.858 150.516L108.656 157.314L101.858 164.112C100.7 165.27 100.7 167.141 101.858 168.298C102.452 168.892 103.194 169.159 103.966 169.159C104.738 169.159 105.48 168.862 106.073 168.298L112.872 161.5L119.67 168.298C120.264 168.892 121.006 169.159 121.778 169.159C122.55 169.159 123.292 168.862 123.886 168.298C125.044 167.141 125.044 165.27 123.886 164.112L117.088 157.314L123.886 150.516C125.044 149.358 125.044 147.487 123.886 146.33H123.827Z" fill="#14A0ED"></path><path d="M88.2015 146.33C87.0437 145.172 85.1734 145.172 84.0156 146.33L77.2172 153.128L70.4187 146.33C69.2609 145.172 67.3906 145.172 66.2328 146.33C65.075 147.487 65.075 149.358 66.2328 150.516L73.0312 157.314L66.2328 164.112C65.075 165.27 65.075 167.141 66.2328 168.298C66.8266 168.892 67.5687 169.159 68.3406 169.159C69.1125 169.159 69.8547 168.862 70.4484 168.298L77.2469 161.5L84.0453 168.298C84.6391 168.892 85.3812 169.159 86.1531 169.159C86.925 169.159 87.6672 168.862 88.2609 168.298C89.4187 167.141 89.4187 165.27 88.2609 164.112L81.4625 157.314L88.2609 150.516C89.4187 149.358 89.4187 147.487 88.2609 146.33H88.2015Z" fill="#14A0ED"></path><path d="M52.5765 146.33C51.4187 145.172 49.5484 145.172 48.3906 146.33L41.5922 153.128L34.7937 146.33C33.6359 145.172 31.7656 145.172 30.6078 146.33C29.45 147.487 29.45 149.358 30.6078 150.516L37.4062 157.314L30.6078 164.112C29.45 165.27 29.45 167.141 30.6078 168.298C31.2016 168.892 31.9437 169.159 32.7156 169.159C33.4875 169.159 34.2297 168.862 34.8234 168.298L41.6219 161.5L48.4203 168.298C49.014 168.892 49.7562 169.159 50.5281 169.159C51.3 169.159 52.0422 168.862 52.6359 168.298C53.7937 167.141 53.7937 165.27 52.6359 164.112L45.8375 157.314L52.6359 150.516C53.7937 149.358 53.7937 147.487 52.6359 146.33H52.5765Z" fill="#14A0ED"></path></svg>