<svg xmlns="http://www.w3.org/2000/svg" width="190" height="190" viewBox="0 0 190 190" fill="none"><path d="M95 68.2812C78.6422 68.2812 65.3125 81.6109 65.3125 97.9688V112.812C65.3125 114.445 66.6484 115.781 68.2812 115.781H121.719C123.352 115.781 124.688 114.445 124.688 112.812V97.9688C124.688 81.6109 111.358 68.2812 95 68.2812ZM83.125 109.844V97.9688C83.125 91.4078 88.4391 86.0938 95 86.0938C101.561 86.0938 106.875 91.4078 106.875 97.9688V109.844H83.125ZM118.75 109.844H112.812V97.9688C112.812 88.1422 104.827 80.1562 95 80.1562C85.1734 80.1562 77.1875 88.1422 77.1875 97.9688V109.844H71.25V97.9688C71.25 84.8766 81.9078 74.2188 95 74.2188C108.092 74.2188 118.75 84.8766 118.75 97.9688V109.844Z" fill="#0A0F26"></path><path d="M95 157.344C88.4391 157.344 83.125 152.03 83.125 145.469C83.125 138.908 88.4391 133.594 95 133.594C101.561 133.594 106.875 138.908 106.875 145.469C106.875 152.03 101.561 157.344 95 157.344ZM95 139.531C91.7344 139.531 89.0625 142.203 89.0625 145.469C89.0625 148.734 91.7344 151.406 95 151.406C98.2656 151.406 100.938 148.734 100.938 145.469C100.938 142.203 98.2656 139.531 95 139.531Z" fill="#14A0ED"></path><path d="M148.437 127.656C146.805 127.656 145.469 126.32 145.469 124.688C145.469 123.055 146.805 121.719 148.437 121.719C164.795 121.719 178.125 108.389 178.125 92.0312C178.125 75.6734 164.795 62.3438 148.437 62.3438C146.686 62.3438 144.905 62.5219 143.005 62.8484C142.144 62.9969 141.223 62.7594 140.541 62.1953C139.858 61.6313 139.472 60.7703 139.502 59.8797C139.502 59.8203 139.502 59.4938 139.502 59.4344C139.502 34.7938 119.522 14.8141 94.9703 14.8141C70.4187 14.8141 50.4391 34.7937 50.4391 59.3453C50.4391 59.4047 50.4391 59.8203 50.4391 59.8797C50.4391 60.7703 50.0531 61.6313 49.4 62.1953C48.7469 62.7594 47.7969 62.9969 46.9359 62.8484C45.0359 62.4922 43.2547 62.3438 41.5031 62.3438C25.1453 62.3438 11.8156 75.6734 11.8156 92.0312C11.8156 108.389 25.1453 121.719 41.5031 121.719C43.1359 121.719 44.4719 123.055 44.4719 124.688C44.4719 126.32 43.1359 127.656 41.5031 127.656C21.85 127.656 5.87811 111.684 5.87811 92.0312C5.87811 71.3687 23.5719 54.6547 44.5609 56.5547C46.0453 30.0437 68.0734 8.90625 94.9406 8.90625C121.808 8.90625 143.866 30.0141 145.32 56.5547C166.339 54.6547 184.003 71.3984 184.003 92.0312C184.003 112.664 168.031 127.656 148.378 127.656H148.437Z" fill="#14A0ED"></path><path d="M124.688 181.094H65.3125C57.1188 181.094 50.4688 174.444 50.4688 166.25V124.688C50.4688 116.494 57.1188 109.844 65.3125 109.844H124.688C132.881 109.844 139.531 116.494 139.531 124.688V166.25C139.531 174.444 132.881 181.094 124.688 181.094ZM65.3125 115.781C60.4141 115.781 56.4062 119.789 56.4062 124.688V166.25C56.4062 171.148 60.4141 175.156 65.3125 175.156H124.688C129.586 175.156 133.594 171.148 133.594 166.25V124.688C133.594 119.789 129.586 115.781 124.688 115.781H65.3125Z" fill="#14A0ED"></path></svg>