<svg xmlns="http://www.w3.org/2000/svg" width="190" height="190" viewBox="0 0 190 190" fill="none"><path d="M95 157.344C78.6422 157.344 65.3125 144.014 65.3125 127.656C65.3125 111.298 78.6422 97.9688 95 97.9688C111.358 97.9688 124.688 111.298 124.688 127.656C124.688 144.014 111.358 157.344 95 157.344ZM95 103.906C81.9078 103.906 71.25 114.564 71.25 127.656C71.25 140.748 81.9078 151.406 95 151.406C108.092 151.406 118.75 140.748 118.75 127.656C118.75 114.564 108.092 103.906 95 103.906Z" fill="#0A0F26"></path><path d="M99.6312 184.062H90.3984C87.4297 184.062 84.8766 182.163 84.0156 179.313L82.8578 175.423C82.7984 175.186 82.5609 175.008 82.2937 174.919C78.2266 173.82 74.2781 172.188 70.6266 170.08C70.3594 169.931 70.0922 169.902 69.8547 170.02L66.2625 171.95C63.65 173.345 60.5031 172.9 58.3953 170.792L51.8641 164.261C49.7562 162.153 49.3109 159.006 50.7062 156.394L52.6359 152.831C52.7547 152.623 52.725 152.327 52.5766 152.059C50.4687 148.378 48.8062 144.459 47.7078 140.362C47.6187 140.066 47.4406 139.858 47.2031 139.798L43.3438 138.641C40.4938 137.78 38.5938 135.227 38.5938 132.258V123.025C38.5938 120.056 40.4938 117.503 43.3438 116.642L47.1734 115.484C47.4109 115.425 47.5891 115.187 47.6781 114.92C48.7766 110.823 50.4094 106.845 52.5469 103.164C52.6953 102.897 52.725 102.63 52.6062 102.392L50.7062 98.8891C49.3109 96.2766 49.7562 93.1297 51.8641 91.0219L58.3953 84.4906C60.5031 82.3828 63.65 81.9375 66.2625 83.3328L69.7656 85.2328C69.9734 85.3516 70.2703 85.3219 70.5375 85.1734C74.2484 83.0359 78.1969 81.4031 82.3234 80.275C82.6203 80.1859 82.8281 80.0078 82.8875 79.7703L84.0156 75.9703C84.8766 73.1203 87.4297 71.2203 90.3984 71.2203H99.6312C102.6 71.2203 105.153 73.1203 106.014 75.9703L107.142 79.7703C107.202 80.0078 107.439 80.1859 107.706 80.275C111.833 81.3734 115.781 83.0359 119.492 85.1734C119.759 85.3219 120.027 85.3516 120.264 85.2328L123.767 83.3625C126.38 81.9672 129.527 82.4125 131.634 84.5203L138.166 91.0516C140.273 93.1594 140.719 96.3062 139.323 98.9187L137.423 102.452C137.305 102.659 137.334 102.956 137.483 103.223C139.62 106.905 141.253 110.883 142.352 114.98C142.441 115.277 142.619 115.484 142.856 115.544L146.686 116.702C149.536 117.563 151.436 120.116 151.436 123.084V132.317C151.436 135.286 149.536 137.839 146.686 138.7L142.827 139.858C142.589 139.917 142.411 140.155 142.322 140.422C141.223 144.519 139.591 148.438 137.453 152.119C137.305 152.386 137.275 152.653 137.394 152.891L139.323 156.453C140.719 159.066 140.273 162.212 138.166 164.32L131.634 170.852C129.556 172.959 126.38 173.405 123.767 172.009L120.175 170.08C119.967 169.961 119.67 169.991 119.403 170.139C115.752 172.247 111.803 173.88 107.736 174.978C107.439 175.067 107.231 175.245 107.172 175.483L106.014 179.372C105.153 182.222 102.6 184.122 99.6312 184.122V184.062ZM70.1516 164.023C71.3094 164.023 72.4969 164.32 73.5656 164.944C76.7719 166.784 80.2453 168.239 83.8078 169.189C86.0937 169.812 87.875 171.505 88.5281 173.731L89.6859 177.62C89.775 177.917 90.0422 178.125 90.3687 178.125H99.6016C99.9281 178.125 100.195 177.917 100.284 177.62L101.442 173.731C102.095 171.505 103.877 169.812 106.162 169.189C109.755 168.239 113.198 166.784 116.405 164.944C118.453 163.756 120.917 163.697 122.936 164.825L126.528 166.755C126.825 166.903 127.152 166.873 127.389 166.636L133.92 160.105C134.158 159.867 134.187 159.541 134.039 159.244L132.109 155.681C131.011 153.633 131.07 151.198 132.258 149.12C134.128 145.884 135.553 142.441 136.533 138.848C137.156 136.562 138.848 134.781 141.075 134.128L144.934 132.97C145.231 132.881 145.439 132.614 145.439 132.288V123.055C145.439 122.728 145.231 122.461 144.934 122.372L141.105 121.214C138.878 120.561 137.186 118.78 136.562 116.494C135.612 112.902 134.158 109.428 132.287 106.162C131.1 104.114 131.041 101.65 132.139 99.6313L134.039 96.0984C134.187 95.8312 134.128 95.475 133.92 95.2375L127.389 88.7062C127.152 88.4687 126.825 88.4391 126.558 88.5875L123.055 90.4875C121.006 91.5859 118.572 91.5266 116.494 90.3391C113.258 88.4688 109.755 87.0141 106.162 86.0344C103.877 85.4109 102.095 83.7187 101.442 81.5219L100.314 77.7219C100.225 77.425 99.9578 77.2172 99.6312 77.2172H90.3984C90.0719 77.2172 89.8047 77.425 89.7156 77.7219L88.5875 81.5219C87.9047 83.7484 86.1531 85.4406 83.8672 86.0641C80.2453 87.0438 76.7719 88.4688 73.5359 90.3688C71.4875 91.5563 69.0234 91.6156 66.975 90.5172L63.4719 88.6172C63.175 88.4688 62.8484 88.5281 62.6109 88.7359L56.0797 95.2672C55.8422 95.5047 55.8125 95.8312 55.9609 96.0984L57.8609 99.6313C58.9594 101.68 58.9 104.114 57.7125 106.162C55.8422 109.398 54.4172 112.872 53.4375 116.494C52.8141 118.78 51.1219 120.561 48.8953 121.214L45.0656 122.372C44.7688 122.461 44.5609 122.728 44.5609 123.055V132.288C44.5609 132.614 44.7688 132.881 45.0656 132.97L48.925 134.128C51.1516 134.781 52.8437 136.562 53.4375 138.848C54.4172 142.441 55.8422 145.884 57.7125 149.12C58.9 151.169 58.9594 153.633 57.8609 155.681L55.9312 159.244C55.7828 159.541 55.8422 159.867 56.05 160.105L62.5812 166.636C62.8187 166.844 63.1453 166.903 63.4422 166.755L67.0344 164.825C68.0141 164.291 69.0828 164.023 70.1516 164.023Z" fill="#0A0F26"></path><path d="M159.422 120.798C158.323 120.798 157.255 120.175 156.75 119.136C156.037 117.652 156.631 115.9 158.116 115.158C170.466 109.131 178.125 96.8406 178.125 83.125C178.125 63.4719 162.153 47.5 142.5 47.5C139.798 47.5 137.067 47.8266 134.188 48.5094C133.327 48.7172 132.436 48.5094 131.723 48.0047C131.011 47.4703 130.595 46.6688 130.536 45.7781C129.616 26.7781 114.03 11.875 95 11.875C75.9703 11.875 60.3844 26.7781 59.4641 45.7781C59.4344 46.6688 58.9891 47.4703 58.2766 48.0047C57.5641 48.5391 56.6734 48.7172 55.8125 48.5094C52.9328 47.8266 50.2016 47.5 47.5 47.5C27.8469 47.5 11.875 63.4719 11.875 83.125C11.875 96.8703 19.5344 109.131 31.8844 115.158C33.3687 115.87 33.9625 117.652 33.25 119.136C32.5375 120.62 30.7562 121.244 29.2719 120.502C14.8734 113.466 5.9375 99.1563 5.9375 83.125C5.9375 60.2063 24.5813 41.5625 47.5 41.5625C49.6078 41.5625 51.6859 41.7406 53.8234 42.0672C56.4953 21.5531 73.9516 5.9375 95 5.9375C116.048 5.9375 133.505 21.5531 136.177 42.0672C138.314 41.7109 140.422 41.5625 142.5 41.5625C165.419 41.5625 184.062 60.2063 184.062 83.125C184.062 99.1563 175.127 113.466 160.728 120.502C160.312 120.709 159.867 120.798 159.422 120.798Z" fill="#14A0ED"></path></svg>