<svg xmlns="http://www.w3.org/2000/svg" width="190" height="190" viewBox="0 0 190 190" fill="none"><path d="M97.9688 160.728V139.531C97.9688 137.898 96.6328 136.562 95 136.562C93.3672 136.562 92.0312 137.898 92.0312 139.531V160.728C86.925 162.064 83.125 166.666 83.125 172.188C83.125 178.748 88.4391 184.062 95 184.062C101.561 184.062 106.875 178.748 106.875 172.188C106.875 166.666 103.075 162.064 97.9688 160.728ZM95 178.125C91.7344 178.125 89.0625 175.453 89.0625 172.188C89.0625 168.922 91.7344 166.25 95 166.25C98.2656 166.25 100.938 168.922 100.938 172.188C100.938 175.453 98.2656 178.125 95 178.125Z" fill="#14A0ED"></path><path d="M178.125 5.9375H11.875C8.60937 5.9375 5.9375 8.60937 5.9375 11.875V23.75C5.9375 27.0156 8.60937 29.6875 11.875 29.6875H14.8438V130.625C14.8438 137.186 20.1578 142.5 26.7188 142.5H163.281C169.842 142.5 175.156 137.186 175.156 130.625V29.6875H178.125C181.391 29.6875 184.062 27.0156 184.062 23.75V11.875C184.062 8.60937 181.391 5.9375 178.125 5.9375ZM169.219 130.625C169.219 133.891 166.547 136.562 163.281 136.562H26.7188C23.4531 136.562 20.7812 133.891 20.7812 130.625V29.6875H169.219V130.625ZM172.188 23.75H11.875V11.875H178.125V23.75H172.188Z" fill="#0A0F26"></path><path d="M95 124.687C94.7031 124.687 94.4063 124.628 94.1094 124.539C70.7453 117.176 59.375 103.966 59.375 84.1343V56.3765C59.375 55.1296 60.1469 54.0015 61.3344 53.5858L93.9906 41.7108C94.6437 41.4733 95.3563 41.4733 96.0094 41.7108L128.666 53.5858C129.853 54.0015 130.625 55.1296 130.625 56.3765V84.1343C130.625 103.966 119.255 117.176 95.8906 124.539C95.5937 124.628 95.2969 124.687 95 124.687ZM65.3125 58.4843V84.164C65.3125 101.056 74.7531 112.011 95 118.601C115.247 111.981 124.688 101.026 124.688 84.164V58.4843L95 47.678L65.3125 58.4843Z" fill="#14A0ED"></path><path d="M106.875 77.1875H105.391V72.7344C105.391 67.0047 100.73 62.3438 95 62.3438C89.2703 62.3438 84.6094 67.0047 84.6094 72.7344V77.1875H83.125C79.8594 77.1875 77.1875 79.8594 77.1875 83.125V95C77.1875 98.2656 79.8594 100.938 83.125 100.938H106.875C110.141 100.938 112.812 98.2656 112.812 95V83.125C112.812 79.8594 110.141 77.1875 106.875 77.1875ZM90.5469 72.7344C90.5469 70.2703 92.5359 68.2812 95 68.2812C97.4641 68.2812 99.4531 70.2703 99.4531 72.7344V77.1875H90.5469V72.7344ZM83.125 95V83.125H106.875V95H83.125Z" fill="#14A0ED"></path></svg>