<svg xmlns="http://www.w3.org/2000/svg" width="190" height="190" viewBox="0 0 190 190" fill="none"><path d="M163.281 59.375H26.7188C25.0859 59.375 23.75 58.0391 23.75 56.4062V41.5625C23.75 38.2969 26.4219 35.625 29.6875 35.625H160.312C163.578 35.625 166.25 38.2969 166.25 41.5625V56.4062C166.25 58.0391 164.914 59.375 163.281 59.375ZM29.6875 53.4375H160.312V41.5625H29.6875V53.4375Z" fill="#14A0ED"></path><path d="M172.188 20.7812H81.8484L76.4156 11.6969C74.2781 8.13438 70.3891 5.9375 66.2328 5.9375H17.8125C11.2516 5.9375 5.9375 11.2516 5.9375 17.8125V142.5C5.9375 149.061 11.2516 154.375 17.8125 154.375H50.4688C52.1016 154.375 53.4375 153.039 53.4375 151.406C53.4375 149.773 52.1016 148.438 50.4688 148.438H17.8125C14.5469 148.438 11.875 145.766 11.875 142.5V59.375H178.125V142.5C178.125 145.766 175.453 148.438 172.188 148.438H139.531C137.898 148.438 136.562 149.773 136.562 151.406C136.562 153.039 137.898 154.375 139.531 154.375H172.188C178.748 154.375 184.062 149.061 184.062 142.5V32.6562C184.062 26.0953 178.748 20.7812 172.188 20.7812ZM11.875 53.4375V17.8125C11.875 14.5469 14.5469 11.875 17.8125 11.875H66.2031C68.2812 11.875 70.2406 12.9734 71.3094 14.7547L77.6328 25.2641C78.1672 26.1547 79.1469 26.7188 80.1859 26.7188H172.217C175.483 26.7188 178.155 29.3906 178.155 32.6562V53.4375H11.875Z" fill="#0A0F26"></path><path d="M118.75 124.688H115.781V115.781C115.781 104.322 106.459 95 95 95C83.5406 95 74.2188 104.322 74.2188 115.781V124.688H71.25C64.6891 124.688 59.375 130.002 59.375 136.562V172.188C59.375 178.748 64.6891 184.062 71.25 184.062H118.75C125.311 184.062 130.625 178.748 130.625 172.188V136.562C130.625 130.002 125.311 124.688 118.75 124.688ZM80.1562 115.781C80.1562 107.588 86.8063 100.938 95 100.938C103.194 100.938 109.844 107.588 109.844 115.781V124.688H80.1562V115.781ZM124.688 172.188C124.688 175.453 122.016 178.125 118.75 178.125H71.25C67.9844 178.125 65.3125 175.453 65.3125 172.188V136.562C65.3125 133.297 67.9844 130.625 71.25 130.625H118.75C122.016 130.625 124.688 133.297 124.688 136.562V172.188Z" fill="#14A0ED"></path><path d="M103.906 148.438C103.906 143.539 99.8984 139.531 95 139.531C90.1016 139.531 86.0938 143.539 86.0938 148.438C86.0938 152.297 88.5875 155.562 92.0312 156.809V166.25C92.0312 167.883 93.3672 169.219 95 169.219C96.6328 169.219 97.9688 167.883 97.9688 166.25V156.809C101.412 155.592 103.906 152.327 103.906 148.438ZM95 151.406C93.3672 151.406 92.0312 150.07 92.0312 148.438C92.0312 146.805 93.3672 145.469 95 145.469C96.6328 145.469 97.9688 146.805 97.9688 148.438C97.9688 150.07 96.6328 151.406 95 151.406Z" fill="#0A0F26"></path></svg>