<svg xmlns="http://www.w3.org/2000/svg" width="190" height="190" viewBox="0 0 190 190" fill="none"><path d="M157.344 142.5H148.259C146.627 142.5 145.291 141.164 145.291 139.531C145.291 137.898 146.627 136.562 148.259 136.562H157.344C163.905 136.562 169.219 131.248 169.219 124.688V23.75C169.219 17.1891 163.905 11.875 157.344 11.875H32.6562C26.0953 11.875 20.7812 17.1891 20.7812 23.75V124.688C20.7812 131.248 26.0953 136.562 32.6562 136.562H41.7406C43.3734 136.562 44.7094 137.898 44.7094 139.531C44.7094 141.164 43.3734 142.5 41.7406 142.5H32.6562C22.8297 142.5 14.8438 134.514 14.8438 124.688V23.75C14.8438 13.9234 22.8297 5.9375 32.6562 5.9375H157.344C167.17 5.9375 175.156 13.9234 175.156 23.75V124.688C175.156 134.514 167.17 142.5 157.344 142.5Z" fill="#0A0F26"></path><path d="M47.3219 28.6484C46.8766 27.4906 45.7781 26.7188 44.5312 26.7188C43.2844 26.7188 42.1859 27.4906 41.7406 28.6484L32.8344 52.3984C32.2703 53.9422 33.0422 55.6344 34.5859 56.2281C36.1297 56.7922 37.8219 56.0203 38.4156 54.5063L44.5312 38.1781L50.6469 54.5063C51.0922 55.6938 52.2203 56.4359 53.4375 56.4359C53.7937 56.4359 54.15 56.3766 54.4766 56.2578C56.0203 55.6938 56.7922 53.9719 56.2281 52.4281L47.3219 28.6781V28.6484Z" fill="#14A0ED"></path><path d="M83.125 26.7188C81.4922 26.7188 80.1562 28.0547 80.1562 29.6875V44.5312C80.1562 47.7969 77.4844 50.4688 74.2188 50.4688C70.9531 50.4688 68.2812 47.7969 68.2812 44.5312V29.6875C68.2812 28.0547 66.9453 26.7188 65.3125 26.7188C63.6797 26.7188 62.3438 28.0547 62.3438 29.6875V44.5312C62.3438 51.0922 67.6578 56.4062 74.2188 56.4062C80.7797 56.4062 86.0938 51.0922 86.0938 44.5312V29.6875C86.0938 28.0547 84.7578 26.7188 83.125 26.7188Z" fill="#14A0ED"></path><path d="M100.938 26.7188H95C93.3672 26.7188 92.0312 28.0547 92.0312 29.6875V53.4375C92.0312 55.0703 93.3672 56.4062 95 56.4062H100.938C109.131 56.4062 115.781 49.7562 115.781 41.5625C115.781 33.3688 109.131 26.7188 100.938 26.7188ZM100.938 50.4688H97.9688V32.6562H100.938C105.836 32.6562 109.844 36.6641 109.844 41.5625C109.844 46.4609 105.836 50.4688 100.938 50.4688Z" fill="#14A0ED"></path><path d="M124.688 26.7188C123.055 26.7188 121.719 28.0547 121.719 29.6875V53.4375C121.719 55.0703 123.055 56.4062 124.688 56.4062C126.32 56.4062 127.656 55.0703 127.656 53.4375V29.6875C127.656 28.0547 126.32 26.7188 124.688 26.7188Z" fill="#14A0ED"></path><path d="M154.375 26.7188H136.562C134.93 26.7188 133.594 28.0547 133.594 29.6875C133.594 31.3203 134.93 32.6562 136.562 32.6562H142.5V53.4375C142.5 55.0703 143.836 56.4062 145.469 56.4062C147.102 56.4062 148.438 55.0703 148.438 53.4375V32.6562H154.375C156.008 32.6562 157.344 31.3203 157.344 29.6875C157.344 28.0547 156.008 26.7188 154.375 26.7188Z" fill="#14A0ED"></path><path d="M151.406 71.25H38.5938C36.9609 71.25 35.625 69.9141 35.625 68.2812C35.625 66.6484 36.9609 65.3125 38.5938 65.3125H151.406C153.039 65.3125 154.375 66.6484 154.375 68.2812C154.375 69.9141 153.039 71.25 151.406 71.25Z" fill="#0A0F26"></path><path d="M95 184.063C94.7031 184.063 94.4062 184.033 94.1094 183.944L91.2891 183.083C64.1844 174.652 50.4391 158.383 50.4391 134.692V100.878C50.4391 99.6313 51.2406 98.5032 52.4281 98.0876L93.9906 83.3329C94.6437 83.0954 95.3266 83.0954 95.9797 83.3329L137.542 98.0876C138.73 98.5032 139.531 99.6313 139.531 100.878V134.692C139.531 158.383 125.786 174.681 98.6812 183.083L95.8609 183.944C95.5641 184.033 95.2672 184.063 94.9703 184.063H95ZM93.0703 177.383L95 177.977L96.9297 177.383C121.244 169.813 133.594 155.444 133.594 134.663V102.927L95 89.2407L56.4062 102.927V134.663C56.4062 155.444 68.7562 169.842 93.0703 177.383Z" fill="#14A0ED"></path><path d="M95 172.187C94.7031 172.187 94.3766 172.128 94.1094 172.039C72.7344 165.211 62.3438 152.92 62.3438 134.544V108.805C62.3438 107.558 63.1156 106.459 64.3031 106.014L93.9906 95.1781C94.6437 94.9406 95.3562 94.9406 96.0391 95.1781L125.727 106.014C126.884 106.43 127.686 107.558 127.686 108.805V134.544C127.686 152.95 117.295 165.211 95.9203 172.039C95.6234 172.128 95.3266 172.187 95.0297 172.187H95ZM68.2812 110.883V134.544C68.2812 150.219 76.5344 159.956 95 166.102C113.466 159.956 121.719 150.219 121.719 134.544V110.883L95 101.116L68.2812 110.883Z" fill="#0A0F26"></path><path d="M90.0422 145.469C89.2406 145.469 88.439 145.142 87.9047 144.549L78.0187 134.158C76.8906 132.97 76.9203 131.1 78.1078 129.972C79.2953 128.844 81.1656 128.874 82.2937 130.061L90.0422 138.195L107.677 119.67C108.805 118.483 110.675 118.453 111.862 119.552C113.05 120.68 113.109 122.55 111.952 123.738L92.15 144.519C91.5859 145.113 90.814 145.439 90.0125 145.439L90.0422 145.469Z" fill="#14A0ED"></path></svg>