<svg xmlns="http://www.w3.org/2000/svg" width="190" height="190" viewBox="0 0 190 190" fill="none"><path d="M95 151.406C94.7031 151.406 94.3765 151.347 94.0797 151.258L91.0812 150.278C62.1656 140.837 47.5297 122.639 47.5297 96.1875V58.1281C47.5297 56.8812 48.3015 55.7828 49.4593 55.3375L93.9906 38.7422C94.6437 38.5047 95.3859 38.5047 96.0687 38.7422L140.6 55.3375C141.758 55.7828 142.53 56.8812 142.53 58.1281V96.1875C142.53 122.639 127.864 140.837 98.9781 150.278L95.9797 151.258C95.6828 151.347 95.3562 151.406 95.0594 151.406H95ZM92.9218 144.637L95 145.32L97.0781 144.637C123.262 136.087 136.562 119.789 136.562 96.1875V60.2062L95 44.7391L53.4375 60.2062V96.1875C53.4375 119.789 66.7078 136.087 92.9218 144.637Z" fill="#14A0ED"></path><path d="M95 139.531C94.6734 139.531 94.3469 139.472 94.05 139.383C70.7156 131.456 59.375 117.325 59.375 96.0984V66.0844C59.375 64.8672 60.1172 63.7687 61.275 63.3234L93.9312 50.6766C94.6141 50.4094 95.3859 50.4094 96.0688 50.6766L128.725 63.3234C129.853 63.7687 130.625 64.8672 130.625 66.0844V96.0984C130.625 117.295 119.284 131.456 95.95 139.383C95.6531 139.502 95.3266 139.531 95 139.531ZM65.3125 68.1328V96.1281C65.3125 114.445 74.7531 126.32 95 133.445C115.247 126.32 124.688 114.445 124.688 96.1281V68.1328L95 56.6437L65.3125 68.1328Z" fill="#0A0F26"></path><path d="M89.0625 106.875C88.2906 106.875 87.5484 106.578 86.9547 106.014L75.0797 94.1391C73.9219 92.9813 73.9219 91.1109 75.0797 89.9531C76.2375 88.7953 78.1078 88.7953 79.2656 89.9531L89.0328 99.7203L110.675 78.0781C111.833 76.9203 113.703 76.9203 114.861 78.0781C116.019 79.2359 116.019 81.1063 114.861 82.2641L91.1109 106.014C90.5172 106.608 89.775 106.875 89.0031 106.875H89.0625Z" fill="#14A0ED"></path><path d="M20.6031 77.3953C20.3359 77.3953 20.0687 77.3656 19.8016 77.2766C18.2281 76.8312 17.3078 75.1984 17.7234 73.625C25.175 46.6094 46.6094 25.175 73.625 17.7531C77.6031 16.625 81.7 15.8234 85.7672 15.3781C87.3703 15.2297 88.8547 16.3578 89.0328 17.9906C89.2109 19.6234 88.0531 21.0781 86.4203 21.2562C82.65 21.6719 78.8797 22.4141 75.1984 23.4531C50.1422 30.3406 30.3109 50.1719 23.4234 75.1984C23.0672 76.5047 21.8797 77.3656 20.5734 77.3656L20.6031 77.3953Z" fill="#0A0F26"></path><path d="M74.4266 172.366C74.1594 172.366 73.8922 172.336 73.625 172.247C46.5797 164.795 25.175 143.391 17.7235 116.345C16.5953 112.367 15.7938 108.27 15.3485 104.203C15.1703 102.57 16.3281 101.116 17.961 100.937C19.5641 100.789 21.0485 101.917 21.2266 103.55C21.6422 107.32 22.3844 111.091 23.4235 114.772C30.311 139.828 50.1422 159.659 75.1688 166.547C76.7422 166.992 77.6625 168.625 77.2469 170.198C76.8906 171.505 75.7031 172.366 74.3969 172.366H74.4266Z" fill="#0A0F26"></path><path d="M103.877 174.652C102.392 174.652 101.086 173.523 100.938 172.009C100.759 170.377 101.917 168.922 103.55 168.744C107.32 168.328 111.091 167.586 114.772 166.547C139.828 159.659 159.659 139.828 166.547 114.802C166.992 113.228 168.625 112.308 170.198 112.723C171.772 113.169 172.692 114.802 172.277 116.375C164.825 143.42 143.42 164.825 116.375 172.277C112.397 173.405 108.3 174.206 104.233 174.652C104.114 174.652 104.025 174.652 103.906 174.652H103.877Z" fill="#0A0F26"></path><path d="M171.683 89.0922C170.198 89.0922 168.892 87.9641 168.744 86.45C168.328 82.6797 167.586 78.9094 166.547 75.2281C159.659 50.1719 139.828 30.3406 114.802 23.4531C113.228 23.0078 112.308 21.375 112.723 19.8016C113.139 18.2281 114.802 17.3078 116.375 17.7234C143.42 25.175 164.825 46.5797 172.277 73.625C173.405 77.6031 174.206 81.7 174.652 85.7672C174.83 87.4 173.672 88.8547 172.039 89.0328C171.92 89.0328 171.831 89.0328 171.712 89.0328L171.683 89.0922Z" fill="#0A0F26"></path><path d="M95 29.6875C88.4391 29.6875 83.125 24.3734 83.125 17.8125C83.125 11.2516 88.4391 5.9375 95 5.9375C101.561 5.9375 106.875 11.2516 106.875 17.8125C106.875 24.3734 101.561 29.6875 95 29.6875ZM95 11.875C91.7344 11.875 89.0625 14.5469 89.0625 17.8125C89.0625 21.0781 91.7344 23.75 95 23.75C98.2656 23.75 100.938 21.0781 100.938 17.8125C100.938 14.5469 98.2656 11.875 95 11.875Z" fill="#14A0ED"></path><path d="M95 184.062C88.4391 184.062 83.125 178.748 83.125 172.188C83.125 165.627 88.4391 160.312 95 160.312C101.561 160.312 106.875 165.627 106.875 172.188C106.875 178.748 101.561 184.062 95 184.062ZM95 166.25C91.7344 166.25 89.0625 168.922 89.0625 172.188C89.0625 175.453 91.7344 178.125 95 178.125C98.2656 178.125 100.938 175.453 100.938 172.188C100.938 168.922 98.2656 166.25 95 166.25Z" fill="#14A0ED"></path><path d="M172.188 106.875C165.627 106.875 160.312 101.561 160.312 95C160.312 88.4391 165.627 83.125 172.188 83.125C178.748 83.125 184.062 88.4391 184.062 95C184.062 101.561 178.748 106.875 172.188 106.875ZM172.188 89.0625C168.922 89.0625 166.25 91.7344 166.25 95C166.25 98.2656 168.922 100.938 172.188 100.938C175.453 100.938 178.125 98.2656 178.125 95C178.125 91.7344 175.453 89.0625 172.188 89.0625Z" fill="#14A0ED"></path><path d="M17.8125 106.875C11.2516 106.875 5.9375 101.561 5.9375 95C5.9375 88.4391 11.2516 83.125 17.8125 83.125C24.3734 83.125 29.6875 88.4391 29.6875 95C29.6875 101.561 24.3734 106.875 17.8125 106.875ZM17.8125 89.0625C14.5469 89.0625 11.875 91.7344 11.875 95C11.875 98.2656 14.5469 100.938 17.8125 100.938C21.0781 100.938 23.75 98.2656 23.75 95C23.75 91.7344 21.0781 89.0625 17.8125 89.0625Z" fill="#14A0ED"></path></svg>