<svg xmlns="http://www.w3.org/2000/svg" width="190" height="190" viewBox="0 0 190 190" fill="none"><path d="M32.6562 32.6562H26.7188C25.0859 32.6562 23.75 31.3203 23.75 29.6875C23.75 28.0547 25.0859 26.7188 26.7188 26.7188H32.6562C34.2891 26.7188 35.625 28.0547 35.625 29.6875C35.625 31.3203 34.2891 32.6562 32.6562 32.6562Z" fill="#14A0ED"></path><path d="M53.4375 32.6562H47.5C45.8672 32.6562 44.5312 31.3203 44.5312 29.6875C44.5312 28.0547 45.8672 26.7188 47.5 26.7188H53.4375C55.0703 26.7188 56.4062 28.0547 56.4062 29.6875C56.4062 31.3203 55.0703 32.6562 53.4375 32.6562Z" fill="#14A0ED"></path><path d="M127.656 32.6562H68.2812C66.6484 32.6562 65.3125 31.3203 65.3125 29.6875C65.3125 28.0547 66.6484 26.7188 68.2812 26.7188H127.656C129.289 26.7188 130.625 28.0547 130.625 29.6875C130.625 31.3203 129.289 32.6562 127.656 32.6562Z" fill="#14A0ED"></path><path d="M32.6562 89.0625H26.7188C25.0859 89.0625 23.75 87.7266 23.75 86.0938C23.75 84.4609 25.0859 83.125 26.7188 83.125H32.6562C34.2891 83.125 35.625 84.4609 35.625 86.0938C35.625 87.7266 34.2891 89.0625 32.6562 89.0625Z" fill="#14A0ED"></path><path d="M53.4375 89.0625H47.5C45.8672 89.0625 44.5312 87.7266 44.5312 86.0938C44.5312 84.4609 45.8672 83.125 47.5 83.125H53.4375C55.0703 83.125 56.4062 84.4609 56.4062 86.0938C56.4062 87.7266 55.0703 89.0625 53.4375 89.0625Z" fill="#14A0ED"></path><path d="M104.025 89.0625H68.2812C66.6484 89.0625 65.3125 87.7266 65.3125 86.0938C65.3125 84.4609 66.6484 83.125 68.2812 83.125H104.025C105.658 83.125 106.994 84.4609 106.994 86.0938C106.994 87.7266 105.658 89.0625 104.025 89.0625Z" fill="#14A0ED"></path><path d="M32.6562 145.469H26.7188C25.0859 145.469 23.75 144.133 23.75 142.5C23.75 140.867 25.0859 139.531 26.7188 139.531H32.6562C34.2891 139.531 35.625 140.867 35.625 142.5C35.625 144.133 34.2891 145.469 32.6562 145.469Z" fill="#14A0ED"></path><path d="M53.4375 145.469H47.5C45.8672 145.469 44.5312 144.133 44.5312 142.5C44.5312 140.867 45.8672 139.531 47.5 139.531H53.4375C55.0703 139.531 56.4062 140.867 56.4062 142.5C56.4062 144.133 55.0703 145.469 53.4375 145.469Z" fill="#14A0ED"></path><path d="M86.5687 145.469H68.2812C66.6484 145.469 65.3125 144.133 65.3125 142.5C65.3125 140.867 66.6484 139.531 68.2812 139.531H86.5687C88.2016 139.531 89.5375 140.867 89.5375 142.5C89.5375 144.133 88.2016 145.469 86.5687 145.469Z" fill="#14A0ED"></path><path d="M139.531 53.4375C144.43 53.4375 148.438 49.4297 148.438 44.5312V14.8438C148.438 9.94531 144.43 5.9375 139.531 5.9375H14.8438C9.94531 5.9375 5.9375 9.94531 5.9375 14.8438V44.5312C5.9375 49.4297 9.94531 53.4375 14.8438 53.4375H17.8125V62.3438H14.8438C9.94531 62.3438 5.9375 66.3516 5.9375 71.25V100.938C5.9375 105.836 9.94531 109.844 14.8438 109.844H17.8125V118.75H14.8438C9.94531 118.75 5.9375 122.758 5.9375 127.656V157.344C5.9375 162.242 9.94531 166.25 14.8438 166.25H93.4562C95.0891 166.25 96.425 164.914 96.425 163.281C96.425 161.648 95.0891 160.312 93.4562 160.312H14.8438C13.2109 160.312 11.875 158.977 11.875 157.344V127.656C11.875 126.023 13.2109 124.688 14.8438 124.688H86.0938C87.7266 124.688 89.0625 123.352 89.0625 121.719C89.0625 120.086 87.7266 118.75 86.0938 118.75H23.75V109.844H86.0938C87.7266 109.844 89.0625 108.508 89.0625 106.875C89.0625 105.242 87.7266 103.906 86.0938 103.906H14.8438C13.2109 103.906 11.875 102.57 11.875 100.938V71.25C11.875 69.6172 13.2109 68.2812 14.8438 68.2812H139.531C141.164 68.2812 142.5 69.6172 142.5 71.25V75.6141C142.5 77.2469 143.836 78.5828 145.469 78.5828C147.102 78.5828 148.438 77.2469 148.438 75.6141V71.25C148.438 66.3516 144.43 62.3438 139.531 62.3438H136.562V53.4375H139.531ZM11.875 44.5312V14.8438C11.875 13.2109 13.2109 11.875 14.8438 11.875H139.531C141.164 11.875 142.5 13.2109 142.5 14.8438V44.5312C142.5 46.1641 141.164 47.5 139.531 47.5H14.8438C13.2109 47.5 11.875 46.1641 11.875 44.5312ZM130.625 62.3438H23.75V53.4375H130.625V62.3438Z" fill="#0A0F26"></path><path d="M139.531 184.063C139.234 184.063 138.938 184.033 138.641 183.944L135.82 183.083C108.716 174.652 94.9703 158.383 94.9703 134.692V100.878C94.9703 99.6313 95.7719 98.5032 96.9594 98.0876L138.522 83.3329C139.145 83.0954 139.858 83.0954 140.511 83.3329L182.073 98.0876C183.261 98.5032 184.063 99.6313 184.063 100.878V134.692C184.063 158.383 170.317 174.681 143.213 183.083L140.392 183.944C140.095 184.033 139.798 184.063 139.502 184.063H139.531ZM137.602 177.383L139.531 177.977L141.461 177.383C165.775 169.813 178.125 155.444 178.125 134.663V102.927L139.531 89.2407L100.938 102.927V134.663C100.938 155.444 113.288 169.842 137.602 177.383Z" fill="#14A0ED"></path><path d="M139.531 172.187C139.234 172.187 138.908 172.128 138.641 172.039C117.266 165.211 106.875 152.92 106.875 134.544V108.805C106.875 107.558 107.647 106.459 108.834 106.014L138.522 95.1781C139.175 94.9406 139.887 94.9406 140.57 95.1781L170.258 106.014C171.416 106.43 172.217 107.558 172.217 108.805V134.544C172.217 152.95 161.827 165.211 140.452 172.039C140.155 172.128 139.858 172.187 139.561 172.187H139.531ZM112.812 110.883V134.544C112.812 150.219 121.066 159.956 139.531 166.102C157.997 159.956 166.25 150.219 166.25 134.544V110.883L139.531 101.116L112.812 110.883Z" fill="#0A0F26"></path><path d="M134.573 145.469C133.772 145.469 132.97 145.142 132.436 144.548L122.55 134.158C121.422 132.97 121.452 131.1 122.669 129.972C123.856 128.844 125.727 128.873 126.855 130.091L134.603 138.225L152.238 119.7C153.366 118.513 155.236 118.453 156.423 119.611C157.611 120.739 157.67 122.609 156.513 123.797L136.711 144.578C136.147 145.172 135.375 145.498 134.573 145.498V145.469Z" fill="#14A0ED"></path></svg>