<svg xmlns="http://www.w3.org/2000/svg" width="190" height="190" viewBox="0 0 190 190" fill="none"><path d="M97.9688 160.728V139.531C97.9688 137.898 96.6328 136.562 95 136.562C93.3672 136.562 92.0312 137.898 92.0312 139.531V160.728C86.925 162.064 83.125 166.666 83.125 172.188C83.125 178.748 88.4391 184.062 95 184.062C101.561 184.062 106.875 178.748 106.875 172.188C106.875 166.666 103.075 162.064 97.9688 160.728ZM95 178.125C91.7344 178.125 89.0625 175.453 89.0625 172.188C89.0625 168.922 91.7344 166.25 95 166.25C98.2656 166.25 100.938 168.922 100.938 172.188C100.938 175.453 98.2656 178.125 95 178.125Z" fill="#14A0ED"></path><path d="M178.125 5.9375H11.875C8.60937 5.9375 5.9375 8.60937 5.9375 11.875V23.75C5.9375 27.0156 8.60937 29.6875 11.875 29.6875H14.8438V130.625C14.8438 137.186 20.1578 142.5 26.7188 142.5H163.281C169.842 142.5 175.156 137.186 175.156 130.625V29.6875H178.125C181.391 29.6875 184.062 27.0156 184.062 23.75V11.875C184.062 8.60937 181.391 5.9375 178.125 5.9375ZM169.219 130.625C169.219 133.891 166.547 136.562 163.281 136.562H26.7188C23.4531 136.562 20.7812 133.891 20.7812 130.625V29.6875H169.219V130.625ZM172.188 23.75H11.875V11.875H178.125V23.75H172.188Z" fill="#0A0F26"></path><path d="M58.4055 77.6575C57.5102 77.6575 56.6609 77.1072 56.2936 76.1739C55.8116 74.9536 56.3625 73.5418 57.5332 73.0393L76.6314 64.76C77.8021 64.2575 79.1564 64.8318 79.6384 66.0522C80.1205 67.2725 79.5695 68.6843 78.3989 69.1868L59.3007 77.4661C59.0023 77.5857 58.7039 77.6575 58.4284 77.6575H58.4055Z" fill="#14A0ED"></path><path d="M113.106 72.0582C112.372 72.0582 111.637 71.6754 111.201 71.0054C110.489 69.9047 110.788 68.4211 111.844 67.6793L131.722 53.8486C132.778 53.1068 134.201 53.4179 134.913 54.5186C135.625 55.6193 135.326 57.1029 134.27 57.8447L114.392 71.6754C114.001 71.9386 113.565 72.0822 113.129 72.0822L113.106 72.0582Z" fill="#14A0ED"></path><path d="M104.82 73.5657C104.636 73.5657 104.452 73.5657 104.269 73.4939L85.6295 68.6125C84.39 68.3014 83.6555 66.9854 83.9539 65.7172C84.2523 64.425 85.5148 63.6593 86.7314 63.9704L105.37 68.8518C106.61 69.1629 107.345 70.4789 107.046 71.7472C106.794 72.8239 105.852 73.5657 104.82 73.5657Z" fill="#14A0ED"></path><path d="M88.6136 113H74.8409C73.5784 113 72.5455 111.923 72.5455 110.607V79.5C72.5455 78.1839 73.5784 77.1071 74.8409 77.1071H88.6136C89.8761 77.1071 90.9091 78.1839 90.9091 79.5V110.607C90.9091 111.923 89.8761 113 88.6136 113ZM77.1364 108.214H86.3182V81.8929H77.1364V108.214Z" fill="#14A0ED"></path><path d="M116.159 113H102.386C101.124 113 100.091 111.923 100.091 110.607V86.6786C100.091 85.3625 101.124 84.2857 102.386 84.2857H116.159C117.422 84.2857 118.455 85.3625 118.455 86.6786V110.607C118.455 111.923 117.422 113 116.159 113ZM104.682 108.214H113.864V89.0714H104.682V108.214Z" fill="#14A0ED"></path><path d="M61.0682 113H47.2955C46.033 113 45 111.923 45 110.607V91.4643C45 90.1482 46.033 89.0714 47.2955 89.0714H61.0682C62.3307 89.0714 63.3636 90.1482 63.3636 91.4643V110.607C63.3636 111.923 62.3307 113 61.0682 113ZM49.5909 108.214H58.7727V93.8571H49.5909V108.214Z" fill="#14A0ED"></path><path d="M143.705 113H129.932C128.669 113 127.636 111.923 127.636 110.607V67.5357C127.636 66.2196 128.669 65.1429 129.932 65.1429H143.705C144.967 65.1429 146 66.2196 146 67.5357V110.607C146 111.923 144.967 113 143.705 113ZM132.227 108.214H141.409V69.9286H132.227V108.214Z" fill="#14A0ED"></path><path d="M136.818 60.3571C133.031 60.3571 129.932 57.1268 129.932 53.1786C129.932 49.2304 133.031 46 136.818 46C140.606 46 143.705 49.2304 143.705 53.1786C143.705 57.1268 140.606 60.3571 136.818 60.3571ZM136.818 50.7857C135.556 50.7857 134.523 51.8625 134.523 53.1786C134.523 54.4946 135.556 55.5714 136.818 55.5714C138.081 55.5714 139.114 54.4946 139.114 53.1786C139.114 51.8625 138.081 50.7857 136.818 50.7857Z" fill="#0A0F26"></path><path d="M109.273 79.5C105.485 79.5 102.386 76.2696 102.386 72.3214C102.386 68.3732 105.485 65.1429 109.273 65.1429C113.06 65.1429 116.159 68.3732 116.159 72.3214C116.159 76.2696 113.06 79.5 109.273 79.5ZM109.273 69.9286C108.01 69.9286 106.977 71.0054 106.977 72.3214C106.977 73.6375 108.01 74.7143 109.273 74.7143C110.535 74.7143 111.568 73.6375 111.568 72.3214C111.568 71.0054 110.535 69.9286 109.273 69.9286Z" fill="#0A0F26"></path><path d="M81.7273 72.3214C77.9398 72.3214 74.8409 69.0911 74.8409 65.1429C74.8409 61.1946 77.9398 57.9643 81.7273 57.9643C85.5148 57.9643 88.6136 61.1946 88.6136 65.1429C88.6136 69.0911 85.5148 72.3214 81.7273 72.3214ZM81.7273 62.75C80.4648 62.75 79.4318 63.8268 79.4318 65.1429C79.4318 66.4589 80.4648 67.5357 81.7273 67.5357C82.9898 67.5357 84.0227 66.4589 84.0227 65.1429C84.0227 63.8268 82.9898 62.75 81.7273 62.75Z" fill="#0A0F26"></path><path d="M54.1818 84.2857C50.3943 84.2857 47.2955 81.0554 47.2955 77.1071C47.2955 73.1589 50.3943 69.9286 54.1818 69.9286C57.9693 69.9286 61.0682 73.1589 61.0682 77.1071C61.0682 81.0554 57.9693 84.2857 54.1818 84.2857ZM54.1818 74.7143C52.9193 74.7143 51.8864 75.7911 51.8864 77.1071C51.8864 78.4232 52.9193 79.5 54.1818 79.5C55.4443 79.5 56.4773 78.4232 56.4773 77.1071C56.4773 75.7911 55.4443 74.7143 54.1818 74.7143Z" fill="#0A0F26"></path></svg>