<svg xmlns="http://www.w3.org/2000/svg" width="190" height="190" viewBox="0 0 190 190" fill="none"><path d="M127.241 184.063H62.7891C47.8266 184.063 35.6547 171.594 35.6547 156.275C35.6547 140.956 47.8266 128.488 62.7891 128.488C64.5109 128.488 66.2031 128.666 67.8656 128.992C67.8656 128.903 67.8656 128.784 67.8656 128.695C67.8656 113.377 80.0375 100.908 95 100.908C109.962 100.908 122.134 113.377 122.134 128.695C122.134 128.784 122.134 128.903 122.134 128.992C123.827 128.666 125.519 128.488 127.211 128.488C142.173 128.488 154.345 140.956 154.345 156.275C154.345 171.594 142.173 184.063 127.211 184.063H127.241ZM62.7891 134.455C51.0922 134.455 41.5922 144.252 41.5922 156.305C41.5922 168.358 51.0922 178.155 62.7891 178.155H127.241C138.937 178.155 148.437 168.358 148.437 156.305C148.437 144.252 138.937 134.455 127.241 134.455C124.747 134.455 122.253 134.93 119.848 135.85C118.839 136.236 117.741 136.058 116.909 135.375C116.078 134.692 115.692 133.623 115.87 132.584C116.108 131.219 116.227 129.942 116.227 128.755C116.227 116.702 106.727 106.905 95.0297 106.905C83.3328 106.905 73.8328 116.702 73.8328 128.755C73.8328 129.972 73.9516 131.219 74.1891 132.584C74.3672 133.623 73.9813 134.692 73.15 135.375C72.3188 136.058 71.1906 136.236 70.2109 135.85C67.8063 134.93 65.3125 134.455 62.8188 134.455H62.7891Z" fill="#14A0ED"></path><path d="M127.241 33.5172C125.519 33.5172 123.827 33.6953 122.164 34.0219C122.164 33.9328 122.164 33.8141 122.164 33.725C122.164 18.4062 109.992 5.9375 95.0297 5.9375C80.0672 5.9375 67.8953 18.4062 67.8953 33.725C67.8953 33.8141 67.8953 33.9328 67.8953 34.0219C66.2031 33.6953 64.511 33.5172 62.8188 33.5172C47.8563 33.5172 35.6844 45.9859 35.6844 61.3047C35.6844 76.6234 47.8563 89.0922 62.8188 89.0922H127.27C142.233 89.0922 154.405 76.6234 154.405 61.3047C154.405 45.9859 142.233 33.5172 127.27 33.5172H127.241ZM127.241 83.125H62.7891C51.0922 83.125 41.5922 73.3281 41.5922 61.275C41.5922 49.2219 51.0922 39.425 62.7891 39.425C65.2828 39.425 67.7766 39.9 70.1813 40.8203C71.1609 41.2062 72.2891 41.0281 73.1203 40.3453C73.9516 39.6625 74.3375 38.5937 74.1594 37.5547C73.9219 36.1891 73.8031 34.9125 73.8031 33.725C73.8031 21.6719 83.3031 11.875 95 11.875C106.697 11.875 116.197 21.6719 116.197 33.725C116.197 34.9422 116.078 36.1891 115.841 37.5547C115.663 38.5937 116.048 39.6625 116.88 40.3453C117.711 41.0281 118.839 41.2062 119.819 40.8203C122.223 39.9 124.717 39.425 127.211 39.425C138.908 39.425 148.408 49.2219 148.408 61.275C148.408 73.3281 138.908 83.125 127.211 83.125H127.241Z" fill="#0A0F26"></path><path d="M175.156 130.625H168.566C178.6 121.273 184.062 110.081 184.062 98.5031C184.062 86.925 178.6 75.5547 168.269 66.0844C167.052 64.9859 165.181 65.075 164.083 66.2625C162.984 67.4797 163.044 69.35 164.261 70.4484C173.345 78.7609 178.155 88.4688 178.155 98.5031C178.155 108.538 172.93 118.958 163.311 127.389V118.72C163.311 117.088 161.975 115.752 160.342 115.752C158.709 115.752 157.373 117.088 157.373 118.72V133.564C157.373 133.564 157.433 133.772 157.433 133.891C157.433 134.098 157.492 134.277 157.552 134.484C157.611 134.692 157.7 134.87 157.789 135.048C157.848 135.138 157.848 135.256 157.908 135.345C157.937 135.405 158.027 135.405 158.056 135.464C158.264 135.702 158.502 135.909 158.769 136.088C158.858 136.147 158.947 136.236 159.066 136.295C159.452 136.473 159.867 136.592 160.312 136.592H175.156C176.789 136.592 178.125 135.256 178.125 133.623C178.125 131.991 176.789 130.655 175.156 130.655V130.625Z" fill="#0A0F26"></path><path d="M29.6875 115.781C28.0547 115.781 26.7188 117.117 26.7188 118.75V127.419C17.1 118.958 11.875 108.864 11.875 98.5328C11.875 88.2016 16.6844 78.7906 25.7688 70.4781C26.9859 69.3797 27.075 67.5094 25.9469 66.2922C24.8484 65.075 22.9484 64.986 21.7609 66.1141C11.4297 75.5844 5.96719 86.8063 5.96719 98.5328C5.96719 110.259 11.4297 121.273 21.4641 130.655H14.8734C13.2406 130.655 11.9047 131.991 11.9047 133.623C11.9047 135.256 13.2406 136.592 14.8734 136.592H29.7172C30.1625 136.592 30.5781 136.473 30.9641 136.295C31.0828 136.236 31.1422 136.177 31.2609 136.088C31.5281 135.909 31.7656 135.731 31.9734 135.464C32.0031 135.405 32.0922 135.405 32.1219 135.345C32.1813 135.256 32.2109 135.138 32.2406 135.048C32.3297 134.87 32.4188 134.692 32.4781 134.484C32.5375 134.277 32.5672 134.098 32.5969 133.891C32.5969 133.772 32.6563 133.683 32.6563 133.564V118.72C32.6563 117.088 31.3203 115.752 29.6875 115.752V115.781Z" fill="#0A0F26"></path></svg>