<svg xmlns="http://www.w3.org/2000/svg" width="190" height="190" viewBox="0 0 190 190" fill="none"><path d="M142.5 124.688H106.875C105.242 124.688 103.906 123.352 103.906 121.719C103.906 120.086 105.242 118.75 106.875 118.75H142.5C162.153 118.75 178.125 102.778 178.125 83.125C178.125 63.4719 162.153 47.5 142.5 47.5C139.798 47.5 137.067 47.8266 134.188 48.5094C133.327 48.7172 132.436 48.5094 131.723 48.0047C131.011 47.4703 130.595 46.6688 130.536 45.7781C129.616 26.7781 114.03 11.875 95 11.875C75.9703 11.875 60.3844 26.7781 59.4641 45.7781C59.4344 46.6688 58.9891 47.4703 58.2766 48.0047C57.5641 48.5391 56.6734 48.7172 55.8125 48.5094C52.9328 47.8266 50.2016 47.5 47.5 47.5C27.8469 47.5 11.875 63.4719 11.875 83.125C11.875 102.778 27.8469 118.75 47.5 118.75H83.125C84.7578 118.75 86.0938 120.086 86.0938 121.719C86.0938 123.352 84.7578 124.688 83.125 124.688H47.5C24.5813 124.688 5.9375 106.044 5.9375 83.125C5.9375 60.2063 24.5813 41.5625 47.5 41.5625C49.6078 41.5625 51.6859 41.7406 53.8234 42.0672C56.4953 21.5531 73.9516 5.9375 95 5.9375C116.048 5.9375 133.505 21.5531 136.177 42.0672C138.314 41.7109 140.422 41.5625 142.5 41.5625C165.419 41.5625 184.062 60.2063 184.062 83.125C184.062 106.044 165.419 124.688 142.5 124.688Z" fill="#14A0ED"></path><path d="M175.156 148.438H163.281V136.562C163.281 134.93 161.945 133.594 160.312 133.594H97.9688V109.844H118.75C123.648 109.844 127.656 105.836 127.656 100.938V77.1875C127.656 72.2891 123.648 68.2812 118.75 68.2812H71.25C66.3516 68.2812 62.3438 72.2891 62.3438 77.1875V100.938C62.3438 105.836 66.3516 109.844 71.25 109.844H92.0312V133.594H29.6875C28.0547 133.594 26.7188 134.93 26.7188 136.562V148.438H14.8438C9.94531 148.438 5.9375 152.445 5.9375 157.344V175.156C5.9375 180.055 9.94531 184.062 14.8438 184.062H44.5312C49.4297 184.062 53.4375 180.055 53.4375 175.156V157.344C53.4375 152.445 49.4297 148.438 44.5312 148.438H32.6562V139.531H92.0312V151.406C92.0312 153.039 93.3672 154.375 95 154.375C96.6328 154.375 97.9688 153.039 97.9688 151.406V139.531H157.344V148.438H145.469C140.57 148.438 136.562 152.445 136.562 157.344V175.156C136.562 180.055 140.57 184.062 145.469 184.062H175.156C180.055 184.062 184.062 180.055 184.062 175.156V157.344C184.062 152.445 180.055 148.438 175.156 148.438ZM71.25 103.906C69.6172 103.906 68.2812 102.57 68.2812 100.938V77.1875C68.2812 75.5547 69.6172 74.2188 71.25 74.2188H118.75C120.383 74.2188 121.719 75.5547 121.719 77.1875V100.938C121.719 102.57 120.383 103.906 118.75 103.906H71.25ZM47.5 157.344V175.156C47.5 176.789 46.1641 178.125 44.5312 178.125H14.8438C13.2109 178.125 11.875 176.789 11.875 175.156V157.344C11.875 155.711 13.2109 154.375 14.8438 154.375H44.5312C46.1641 154.375 47.5 155.711 47.5 157.344ZM178.125 175.156C178.125 176.789 176.789 178.125 175.156 178.125H145.469C143.836 178.125 142.5 176.789 142.5 175.156V157.344C142.5 155.711 143.836 154.375 145.469 154.375H175.156C176.789 154.375 178.125 155.711 178.125 157.344V175.156Z" fill="#0A0F26"></path><path d="M109.844 184.062H80.1562C75.2578 184.062 71.25 180.055 71.25 175.156V157.344C71.25 152.445 75.2578 148.438 80.1562 148.438H109.844C114.742 148.438 118.75 152.445 118.75 157.344V175.156C118.75 180.055 114.742 184.062 109.844 184.062ZM80.1562 154.375C78.5234 154.375 77.1875 155.711 77.1875 157.344V175.156C77.1875 176.789 78.5234 178.125 80.1562 178.125H109.844C111.477 178.125 112.812 176.789 112.812 175.156V157.344C112.812 155.711 111.477 154.375 109.844 154.375H80.1562Z" fill="#14A0ED"></path></svg>