<svg xmlns="http://www.w3.org/2000/svg" width="190" height="190" viewBox="0 0 190 190" fill="none"><path d="M95 89.0625C72.0813 89.0625 53.4375 70.4187 53.4375 47.5C53.4375 24.5813 72.0813 5.9375 95 5.9375C117.919 5.9375 136.562 24.5813 136.562 47.5C136.562 70.4187 117.919 89.0625 95 89.0625ZM95 11.875C75.3469 11.875 59.375 27.8469 59.375 47.5C59.375 67.1531 75.3469 83.125 95 83.125C114.653 83.125 130.625 67.1531 130.625 47.5C130.625 27.8469 114.653 11.875 95 11.875Z" fill="#0A0F26"></path><path d="M89.0625 65.3125C88.2906 65.3125 87.5187 64.9859 86.9547 64.4516L72.1109 49.6078C70.9531 48.45 70.9531 46.5797 72.1109 45.4219C73.2687 44.2641 75.139 44.2641 76.2969 45.4219L88.914 58.0391L113.525 30.6672C114.623 29.45 116.494 29.3609 117.711 30.4594C118.928 31.5578 119.017 33.4281 117.919 34.6453L91.2 64.3328C90.6656 64.9266 89.8937 65.2828 89.0625 65.3125Z" fill="#14A0ED"></path><path d="M166.25 184.062H23.75C17.1891 184.062 11.875 178.748 11.875 172.188V83.125C11.875 76.5641 17.1891 71.25 23.75 71.25H52.1906C53.8234 71.25 55.1594 72.5859 55.1594 74.2188C55.1594 75.8516 53.8234 77.1875 52.1906 77.1875H23.75C20.4844 77.1875 17.8125 79.8594 17.8125 83.125V172.188C17.8125 175.453 20.4844 178.125 23.75 178.125H166.25C169.516 178.125 172.188 175.453 172.188 172.188V83.125C172.188 79.8594 169.516 77.1875 166.25 77.1875H137.809C136.177 77.1875 134.841 75.8516 134.841 74.2188C134.841 72.5859 136.177 71.25 137.809 71.25H166.25C172.811 71.25 178.125 76.5641 178.125 83.125V172.188C178.125 178.748 172.811 184.062 166.25 184.062Z" fill="#0A0F26"></path><path d="M59.375 124.688C51.1813 124.688 44.5312 118.037 44.5312 109.844C44.5312 101.65 51.1813 95 59.375 95C67.5687 95 74.2188 101.65 74.2188 109.844C74.2188 118.037 67.5687 124.688 59.375 124.688ZM59.375 100.938C54.4766 100.938 50.4688 104.945 50.4688 109.844C50.4688 114.742 54.4766 118.75 59.375 118.75C64.2734 118.75 68.2812 114.742 68.2812 109.844C68.2812 104.945 64.2734 100.938 59.375 100.938Z" fill="#14A0ED"></path><path d="M59.375 160.312C44.1453 160.312 32.6562 153.93 32.6562 145.469C32.6562 137.008 44.1453 130.625 59.375 130.625C74.6047 130.625 86.0938 137.008 86.0938 145.469C86.0938 153.93 74.6047 160.312 59.375 160.312ZM59.375 136.562C47.4703 136.562 38.5938 141.253 38.5938 145.469C38.5938 149.684 47.4703 154.375 59.375 154.375C71.2797 154.375 80.1562 149.684 80.1562 145.469C80.1562 141.253 71.2797 136.562 59.375 136.562Z" fill="#14A0ED"></path><path d="M112.812 103.906H103.906C102.273 103.906 100.938 102.57 100.938 100.938C100.938 99.3047 102.273 97.9688 103.906 97.9688H112.812C114.445 97.9688 115.781 99.3047 115.781 100.938C115.781 102.57 114.445 103.906 112.812 103.906Z" fill="#0A0F26"></path><path d="M133.594 103.906H124.688C123.055 103.906 121.719 102.57 121.719 100.938C121.719 99.3047 123.055 97.9688 124.688 97.9688H133.594C135.227 97.9688 136.562 99.3047 136.562 100.938C136.562 102.57 135.227 103.906 133.594 103.906Z" fill="#0A0F26"></path><path d="M154.375 121.719H103.906C102.273 121.719 100.938 120.383 100.938 118.75C100.938 117.117 102.273 115.781 103.906 115.781H154.375C156.008 115.781 157.344 117.117 157.344 118.75C157.344 120.383 156.008 121.719 154.375 121.719Z" fill="#14A0ED"></path><path d="M154.375 139.531H103.906C102.273 139.531 100.938 138.195 100.938 136.562C100.938 134.93 102.273 133.594 103.906 133.594H154.375C156.008 133.594 157.344 134.93 157.344 136.562C157.344 138.195 156.008 139.531 154.375 139.531Z" fill="#14A0ED"></path><path d="M154.375 157.344H103.906C102.273 157.344 100.938 156.008 100.938 154.375C100.938 152.742 102.273 151.406 103.906 151.406H154.375C156.008 151.406 157.344 152.742 157.344 154.375C157.344 156.008 156.008 157.344 154.375 157.344Z" fill="#14A0ED"></path><path d="M154.375 103.906H145.469C143.836 103.906 142.5 102.57 142.5 100.938C142.5 99.3047 143.836 97.9688 145.469 97.9688H154.375C156.008 97.9688 157.344 99.3047 157.344 100.938C157.344 102.57 156.008 103.906 154.375 103.906Z" fill="#0A0F26"></path></svg>