<svg xmlns="http://www.w3.org/2000/svg" width="190" height="190" viewBox="0 0 190 190" fill="none"><path d="M124.688 89.0625C108.33 89.0625 95 75.7328 95 59.375C95 43.0172 108.33 29.6875 124.688 29.6875C141.045 29.6875 154.375 43.0172 154.375 59.375C154.375 75.7328 141.045 89.0625 124.688 89.0625ZM124.688 35.625C111.595 35.625 100.938 46.2828 100.938 59.375C100.938 72.4672 111.595 83.125 124.688 83.125C137.78 83.125 148.438 72.4672 148.438 59.375C148.438 46.2828 137.78 35.625 124.688 35.625Z" fill="#14A0ED"></path><path d="M129.052 112.813H120.323C117.503 112.813 114.95 110.913 114.148 108.211L113.05 104.53C112.991 104.352 112.842 104.233 112.634 104.173C108.775 103.134 105.064 101.591 101.561 99.6016C101.353 99.4828 101.145 99.4828 100.997 99.5422L97.6125 101.353C95.0891 102.719 92.0313 102.273 89.9828 100.225L83.8078 94.05C81.7891 92.0313 81.3438 88.9438 82.6797 86.4203L84.4906 83.0657C84.5797 82.9172 84.55 82.7094 84.4313 82.5016C82.4125 79.0282 80.8688 75.2875 79.8297 71.4282C79.7703 71.2203 79.6516 71.0422 79.4735 71.0125L75.8219 69.9141C73.1203 69.1125 71.2203 66.5594 71.2203 63.7391V55.011C71.2203 52.1313 73.061 49.6672 75.8219 48.836L79.4438 47.7375C79.6219 47.6782 79.7406 47.5297 79.8 47.3219C80.8391 43.4328 82.3828 39.6922 84.4016 36.1891C84.5203 35.9813 84.5203 35.7735 84.461 35.625L82.6797 32.3C81.3141 29.7766 81.7594 26.7188 83.8078 24.6703L89.9828 18.4953C92.0016 16.4766 95.0891 16.0313 97.6125 17.3672L100.908 19.1485C101.056 19.2375 101.264 19.2078 101.472 19.0891C104.975 17.0703 108.745 15.4969 112.634 14.4578C112.842 14.3985 113.02 14.2797 113.05 14.1016L114.119 10.5094C114.92 7.80784 117.473 5.90784 120.294 5.90784H129.022C131.842 5.90784 134.395 7.80784 135.197 10.5094L136.266 14.1016C136.325 14.2797 136.473 14.3985 136.681 14.4578C140.6 15.4969 144.341 17.0703 147.844 19.0891C148.022 19.2078 148.259 19.2078 148.408 19.1485L151.733 17.3672C154.256 16.0016 157.314 16.4469 159.363 18.4953L165.538 24.6703C167.556 26.6891 168.002 29.7469 166.666 32.3L164.884 35.625C164.795 35.7735 164.825 35.9813 164.944 36.1891C166.963 39.6922 168.506 43.4328 169.545 47.3219C169.605 47.5297 169.723 47.7078 169.902 47.7672L173.523 48.8657C176.284 49.6969 178.125 52.161 178.125 55.0407V63.7688C178.125 66.5891 176.225 69.1422 173.523 69.9438L169.872 71.0422C169.694 71.1016 169.575 71.25 169.516 71.4578C168.477 75.3172 166.933 79.0578 164.914 82.5313C164.795 82.7391 164.795 82.9469 164.855 83.0953L166.666 86.45C168.031 88.9735 167.586 92.0313 165.538 94.0797L159.363 100.255C157.344 102.303 154.286 102.748 151.733 101.383L148.348 99.5719C148.2 99.4828 147.992 99.5125 147.784 99.6313C144.311 101.62 140.6 103.164 136.711 104.203C136.503 104.263 136.325 104.381 136.295 104.559L135.197 108.241C134.395 110.942 131.842 112.842 129.022 112.842L129.052 112.813ZM101.205 93.5453C102.333 93.5453 103.461 93.8422 104.5 94.436C107.528 96.1875 110.764 97.5235 114.148 98.4438C116.375 99.0375 118.067 100.67 118.72 102.838L119.819 106.519C119.878 106.727 120.086 106.875 120.323 106.875H129.052C129.289 106.875 129.467 106.727 129.527 106.519L130.625 102.838C131.278 100.7 132.97 99.0375 135.197 98.4438C138.552 97.5532 141.817 96.1875 144.845 94.4657C146.834 93.3078 149.209 93.2782 151.198 94.3469L154.583 96.1578C154.791 96.2766 155.028 96.2172 155.177 96.0688L161.352 89.8938C161.5 89.7453 161.559 89.4782 161.441 89.3L159.63 85.9157C158.561 83.9266 158.62 81.5516 159.748 79.5625C161.5 76.5344 162.866 73.2688 163.756 69.8844C164.35 67.6578 165.983 65.9657 168.15 65.3125L171.802 64.2141C172.009 64.1547 172.158 63.9469 172.158 63.7094V54.9813C172.158 54.7438 172.009 54.5657 171.802 54.4766L168.18 53.3782C166.013 52.725 164.38 51.0032 163.786 48.8063C162.866 45.4219 161.53 42.1563 159.778 39.0985C158.62 37.1094 158.591 34.7344 159.659 32.7453L161.441 29.4203C161.559 29.2125 161.5 28.975 161.352 28.8266L155.177 22.6516C155.028 22.5032 154.761 22.4438 154.583 22.5625L151.288 24.3438C149.298 25.4125 146.923 25.3532 144.934 24.1953C141.877 22.4141 138.611 21.0782 135.197 20.1578C132.97 19.5641 131.278 17.9313 130.625 15.7641L129.556 12.1719C129.497 11.9641 129.289 11.8156 129.081 11.8156H120.353C120.116 11.8156 119.938 11.9641 119.878 12.1719L118.809 15.7641C118.156 17.9313 116.464 19.5641 114.238 20.1578C110.823 21.0782 107.558 22.4438 104.5 24.1953C102.511 25.3532 100.136 25.4125 98.1469 24.3438L94.8516 22.5625C94.6438 22.4735 94.4063 22.5032 94.2578 22.6516L88.0828 28.8266C87.9344 28.975 87.875 29.2422 87.9938 29.4203L89.775 32.7453C90.8438 34.7344 90.7844 37.0797 89.6563 39.0985C87.9047 42.1563 86.5391 45.4219 85.6485 48.8063C85.0547 51.0328 83.4219 52.7547 81.2547 53.3782L77.6328 54.4766C77.425 54.536 77.2766 54.7438 77.2766 54.9813V63.7094C77.2766 63.9469 77.425 64.125 77.6328 64.1844L81.2844 65.2828C83.4219 65.936 85.0844 67.6282 85.6782 69.8547C86.5985 73.2391 87.9344 76.475 89.686 79.5032C90.8438 81.4922 90.8735 83.8672 89.8344 85.8563L88.0235 89.2407C87.9047 89.4485 87.9641 89.686 88.1125 89.8344L94.2875 96.0094C94.436 96.1578 94.7031 96.2172 94.8813 96.0985L98.2656 94.2875C99.2156 93.7828 100.255 93.5157 101.294 93.5157L101.205 93.5453Z" fill="#14A0ED"></path><path d="M182.816 135.85C179.639 129.141 171.327 125.934 163.816 128.577L129.497 142.144C130.209 140.422 130.625 138.522 130.625 136.533C130.625 128.339 123.975 121.689 115.781 121.689H96.9C94.2578 121.689 91.6453 120.977 89.3594 119.641L76.95 112.337C73.7438 110.467 70.0922 109.458 66.3813 109.458H41.5031C41.2656 104.737 37.4063 100.967 32.6266 100.967H14.8141C9.91565 100.967 5.90784 104.975 5.90784 109.873V163.311C5.90784 168.209 9.91565 172.217 14.8141 172.217H32.6266C37.525 172.217 41.5031 168.239 41.5328 163.341C45.8375 163.756 49.9938 164.973 53.7047 167.052L72.5266 177.62C80.186 181.925 88.825 184.092 97.4641 184.092C104.678 184.092 111.922 182.578 118.661 179.52L175.72 153.692C179.283 152.089 181.955 149.269 183.231 145.766C184.419 142.5 184.27 138.997 182.786 135.85H182.816ZM35.625 163.281C35.625 164.914 34.2891 166.25 32.6563 166.25H14.8438C13.211 166.25 11.875 164.914 11.875 163.281V109.844C11.875 108.211 13.211 106.875 14.8438 106.875H32.6563C34.2891 106.875 35.625 108.211 35.625 109.844V163.281ZM177.709 143.717C176.997 145.706 175.423 147.309 173.316 148.259L116.256 174.087C103.342 179.936 87.7266 179.283 75.4657 172.395L56.6438 161.827C52.0719 159.244 46.9063 157.789 41.5625 157.344V115.336H66.3813C69.0235 115.336 71.636 116.048 73.9219 117.384L86.3313 124.687C89.5375 126.558 93.1891 127.567 96.9 127.567H115.781C120.68 127.567 124.688 131.575 124.688 136.473C124.688 141.372 120.828 145.231 116.019 145.35C115.841 145.35 115.663 145.35 115.484 145.35H83.125C81.4922 145.35 80.1563 146.686 80.1563 148.319C80.1563 149.952 81.4922 151.287 83.125 151.287H115.781C115.781 151.287 115.93 151.287 116.019 151.287C120.323 151.228 124.569 150.397 128.577 148.823L165.864 134.069C170.377 132.466 175.572 134.395 177.413 138.314C178.214 140.006 178.303 141.906 177.65 143.658L177.709 143.717Z" fill="#0A0F26"></path></svg>