<svg xmlns="http://www.w3.org/2000/svg" width="190" height="190" viewBox="0 0 190 190" fill="none"><path d="M94.5175 190C94.1676 190 93.8177 189.965 93.4678 189.861L90.144 188.854C58.1996 178.995 42 159.971 42 132.267V92.7255C42 91.2674 42.9447 89.9482 44.3442 89.4622L93.3279 72.2083C94.0626 71.9306 94.9024 71.9306 95.6721 72.2083L144.656 89.4622C146.055 89.9482 147 91.2674 147 92.7255V132.267C147 159.971 130.8 179.03 98.8561 188.854L95.5322 189.861C95.1823 189.965 94.8324 190 94.4825 190H94.5175ZM92.2433 182.189L94.5175 182.883L96.7917 182.189C125.447 173.336 140.002 156.534 140.002 132.232V95.1209L94.5175 79.1168L49.0327 95.1209V132.232C49.0327 156.534 63.5878 173.371 92.2433 182.189Z" fill="#14A0ED"></path><path d="M94.5175 176.114C94.1676 176.114 93.7828 176.044 93.4679 175.94C68.2763 167.955 56.0303 153.583 56.0303 132.094V101.995C56.0303 100.537 56.94 99.2521 58.3396 98.7314L93.3279 86.06C94.0976 85.7823 94.9374 85.7823 95.7421 86.06L130.73 98.7314C132.095 99.2174 133.04 100.537 133.04 101.995V132.094C133.04 153.617 120.794 167.955 95.6021 175.94C95.2523 176.044 94.9024 176.114 94.5525 176.114H94.5175ZM63.028 104.425V132.094C63.028 150.424 72.7548 161.81 94.5175 168.997C116.28 161.81 126.007 150.424 126.007 132.094V104.425L94.5175 93.0032L63.028 104.425Z" fill="#0A0F26"></path><path d="M88.6745 144.869C87.7298 144.869 86.7851 144.487 86.1554 143.793L74.5042 131.642C73.1747 130.254 73.2097 128.067 74.6442 126.747C76.0437 125.428 78.248 125.463 79.5775 126.886L88.7095 136.398L109.493 114.736C110.822 113.347 113.026 113.312 114.426 114.631C115.825 115.951 115.895 118.138 114.531 119.526L91.1937 143.828C90.5289 144.522 89.6192 144.904 88.6745 144.904V144.869Z" fill="#14A0ED"></path><path d="M159.422 120.798C158.323 120.798 157.255 120.175 156.75 119.136C156.037 117.652 156.631 115.9 158.116 115.158C170.466 109.131 178.125 96.8406 178.125 83.125C178.125 63.4719 162.153 47.5 142.5 47.5C139.798 47.5 137.067 47.8266 134.188 48.5094C133.327 48.7172 132.436 48.5094 131.723 48.0047C131.011 47.4703 130.595 46.6688 130.536 45.7781C129.616 26.7781 114.03 11.875 95 11.875C75.9703 11.875 60.3844 26.7781 59.4641 45.7781C59.4344 46.6688 58.9891 47.4703 58.2766 48.0047C57.5641 48.5391 56.6734 48.7172 55.8125 48.5094C52.9328 47.8266 50.2016 47.5 47.5 47.5C27.8469 47.5 11.875 63.4719 11.875 83.125C11.875 96.8703 19.5344 109.131 31.8844 115.158C33.3687 115.87 33.9625 117.652 33.25 119.136C32.5375 120.62 30.7562 121.244 29.2719 120.502C14.8734 113.466 5.9375 99.1563 5.9375 83.125C5.9375 60.2063 24.5813 41.5625 47.5 41.5625C49.6078 41.5625 51.6859 41.7406 53.8234 42.0672C56.4953 21.5531 73.9516 5.9375 95 5.9375C116.048 5.9375 133.505 21.5531 136.177 42.0672C138.314 41.7109 140.422 41.5625 142.5 41.5625C165.419 41.5625 184.062 60.2063 184.062 83.125C184.062 99.1563 175.127 113.466 160.728 120.502C160.312 120.709 159.867 120.798 159.422 120.798Z" fill="#14A0ED"></path></svg>