<svg xmlns="http://www.w3.org/2000/svg" width="190" height="190" viewBox="0 0 190 190" fill="none"><path d="M151.406 123.648C150.07 123.648 148.853 122.728 148.527 121.363C148.141 119.759 149.15 118.156 150.723 117.8C166.844 114 178.125 99.75 178.125 83.125C178.125 63.4719 162.153 47.5 142.5 47.5C139.798 47.5 137.067 47.8266 134.188 48.5094C133.327 48.7172 132.436 48.5094 131.723 48.0047C131.011 47.4703 130.595 46.6688 130.536 45.7781C129.616 26.7781 114.03 11.875 95 11.875C75.9703 11.875 60.3844 26.7781 59.4641 45.7781C59.4344 46.6688 58.9891 47.4703 58.2766 48.0047C57.5641 48.5391 56.6734 48.7172 55.8125 48.5094C52.9328 47.8266 50.2016 47.5 47.5 47.5C27.8469 47.5 11.875 63.4719 11.875 83.125C11.875 99.7203 23.1266 114 39.2766 117.8C40.8797 118.186 41.8594 119.789 41.4734 121.363C41.0875 122.966 39.4844 123.945 37.9109 123.559C19.0891 119.136 5.9375 102.481 5.9375 83.125C5.9375 60.2063 24.5813 41.5625 47.5 41.5625C49.6078 41.5625 51.6859 41.7406 53.8234 42.0672C56.4953 21.5531 73.9516 5.9375 95 5.9375C116.048 5.9375 133.505 21.5531 136.177 42.0672C138.314 41.7109 140.422 41.5625 142.5 41.5625C165.419 41.5625 184.062 60.2063 184.062 83.125C184.062 102.511 170.911 119.136 152.089 123.559C151.852 123.619 151.644 123.648 151.406 123.648Z" fill="#14A0ED"></path><path d="M95 71.25C71.3984 71.25 47.5 77.3656 47.5 89.0625V166.25C47.5 177.947 71.3984 184.062 95 184.062C118.602 184.062 142.5 177.947 142.5 166.25V89.0625C142.5 77.3656 118.602 71.25 95 71.25ZM136.562 127.656C136.562 132.495 120.383 139.531 95 139.531C69.6172 139.531 53.4375 132.495 53.4375 127.656V98.1469C61.9875 103.906 78.5531 106.875 95 106.875C111.447 106.875 128.012 103.906 136.562 98.1469V127.656ZM95 77.1875C120.383 77.1875 136.562 84.2234 136.562 89.0625C136.562 93.9016 120.383 100.938 95 100.938C69.6172 100.938 53.4375 93.9016 53.4375 89.0625C53.4375 84.2234 69.6172 77.1875 95 77.1875ZM95 178.125C69.6172 178.125 53.4375 171.089 53.4375 166.25V136.741C61.9875 142.5 78.5531 145.469 95 145.469C111.447 145.469 128.012 142.5 136.562 136.741V166.25C136.562 171.089 120.383 178.125 95 178.125Z" fill="#0A0F26"></path><path d="M95 129.141C98.2792 129.141 100.938 126.482 100.938 123.203C100.938 119.924 98.2792 117.266 95 117.266C91.7208 117.266 89.0625 119.924 89.0625 123.203C89.0625 126.482 91.7208 129.141 95 129.141Z" fill="#14A0ED"></path><path d="M95 167.734C98.2792 167.734 100.938 165.076 100.938 161.797C100.938 158.518 98.2792 155.859 95 155.859C91.7208 155.859 89.0625 158.518 89.0625 161.797C89.0625 165.076 91.7208 167.734 95 167.734Z" fill="#14A0ED"></path></svg>